<svg height="46" viewBox="0 0 301.14 46" width="301.14" xmlns="http://www.w3.org/2000/svg"><g fill="#fff"><text font-family="GaramondPremrPro, Garamond Premier Pro" font-size="45" transform="translate(47.14)"><tspan x="0" y="33">03-6434-7779</tspan></text><path d="m1115.465 701.225a4.555 4.555 0 0 1 -.173-.977l2.109-1.289c.026-.016.051-.033.075-.05a3.5 3.5 0 0 0 1.4-2.09 3.285 3.285 0 0 0 .04-1.457 1.236 1.236 0 0 0 -.05-.246l-2.378-7.541a3.084 3.084 0 0 0 -1.643-1.924c-.028-.012-.056-.024-.085-.035a2.91 2.91 0 0 0 -2.64.279l-5.574 3.5a3.949 3.949 0 0 0 -1.125.98 4.724 4.724 0 0 0 -.736 1.254c-.016.041-.031.084-.043.127l-.043.128c-.049.147-.1.335-.156.568a17.162 17.162 0 0 0 -.3 2.362 17.551 17.551 0 0 0 .286 4.145 32.054 32.054 0 0 0 1.577 5.64 38.173 38.173 0 0 0 3.61 7.07 39.925 39.925 0 0 0 3.727 5.2 34.782 34.782 0 0 0 3.551 3.611 23.69 23.69 0 0 0 3.18 2.348 19.612 19.612 0 0 0 2.608 1.341 9.859 9.859 0 0 0 1.936.609q.54.095.643.114c.049.01.114.021.166.026a4.77 4.77 0 0 0 1.453-.11 3.985 3.985 0 0 0 1.374-.578l5.606-3.5a2.862 2.862 0 0 0 1.32-1.806 2.634 2.634 0 0 0 -.152-1.678 3.75 3.75 0 0 0 -.764-1.121.854.854 0 0 0 -.078-.073l-6.122-5.3a3.017 3.017 0 0 0 -2-.77 3.49 3.49 0 0 0 -1.958.527l-1.727 1.077a6.34 6.34 0 0 1 -.825-.61 14.412 14.412 0 0 1 -1.577-1.6 21.733 21.733 0 0 1 -2.032-2.894 22.027 22.027 0 0 1 -1.733-3.151 14.95 14.95 0 0 1 -.747-2.106zm-2.8-1.075a6.547 6.547 0 0 0 .248 1.71 17.51 17.51 0 0 0 .888 2.5 24.577 24.577 0 0 0 1.922 3.514 24.145 24.145 0 0 0 2.281 3.229 16.741 16.741 0 0 0 1.868 1.888 7.521 7.521 0 0 0 1.813 1.19 1.308 1.308 0 0 0 .234.079 2.113 2.113 0 0 0 .694.035 1.828 1.828 0 0 0 .819-.26l2.075-1.294a.9.9 0 0 1 .514-.13.4.4 0 0 1 .3.108l6.1 5.278a1.1 1.1 0 0 1 .2.307c-.011.061-.023.113-.155.195l-5.63 3.51c-.018.011-.037.023-.055.037a1.368 1.368 0 0 1 -.479.192 2.249 2.249 0 0 1 -.6.06c-.127-.024-.34-.062-.638-.114a7.345 7.345 0 0 1 -1.4-.455 16.8 16.8 0 0 1 -2.245-1.161 20.9 20.9 0 0 1 -2.818-2.086 32.067 32.067 0 0 1 -3.275-3.333 37.6 37.6 0 0 1 -3.486-4.867 35.646 35.646 0 0 1 -3.373-6.587 29.579 29.579 0 0 1 -1.454-5.168 15.332 15.332 0 0 1 -.257-3.513 14.689 14.689 0 0 1 .237-1.968c.032-.134.06-.241.087-.321s.044-.131.058-.181a2.187 2.187 0 0 1 .321-.522 1.348 1.348 0 0 1 .386-.348l.062-.036 5.6-3.517a.309.309 0 0 1 .276-.062.6.6 0 0 1 .2.331l2.318 7.354a1.171 1.171 0 0 0 .045.2 1.319 1.319 0 0 1 -.038.279.848.848 0 0 1 -.335.519l-2.4 1.469a1.869 1.869 0 0 0 -.6.627 1.684 1.684 0 0 0 -.3.862z" transform="translate(-1104.119 -685.42)"/></g></svg>