<svg height="67.661" viewBox="0 0 67.661 67.661" width="67.661" xmlns="http://www.w3.org/2000/svg"><g fill="#fff"><path d="m226.054 59.6h-40.6a13.531 13.531 0 0 0 -13.532 13.532v40.6a13.533 13.533 0 0 0 13.532 13.532h40.6a13.533 13.533 0 0 0 13.532-13.532v-40.6a13.531 13.531 0 0 0 -13.532-13.532zm-2.582 41.9c-4.734 5.449-15.316 12.082-17.725 13.1s-2.052-.645-1.953-1.216c.056-.338.32-1.931.32-1.931a4.623 4.623 0 0 0 -.072-2.041c-.253-.627-1.252-.952-1.987-1.112-10.842-1.432-18.866-9.01-18.866-18.061 0-10.093 10.12-18.307 22.558-18.307s22.558 8.214 22.558 18.307c.002 4.045-1.563 7.685-4.834 11.269z" transform="translate(-171.925 -59.603)"/><path d="m197.364 81.733h-6.338a.431.431 0 0 1 -.431-.431v-9.835-.011a.429.429 0 0 1 .431-.429h6.338a.43.43 0 0 1 .431.429v1.6a.432.432 0 0 1 -.431.431h-4.308v1.66h4.308a.432.432 0 0 1 .431.431v1.6a.432.432 0 0 1 -.431.431h-4.308v1.66h4.308a.432.432 0 0 1 .431.431v1.6a.432.432 0 0 1 -.431.433z" transform="translate(-148.486 -45.262)"/><path d="m186.969 81.733a.431.431 0 0 0 .431-.431v-1.602a.432.432 0 0 0 -.431-.431h-4.308v-7.813a.43.43 0 0 0 -.431-.429h-1.6a.43.43 0 0 0 -.431.429v9.844a.432.432 0 0 0 .431.431h6.338z" transform="translate(-161.536 -45.262)"/><rect height="10.706" rx=".191" width="2.461" x="27.219" y="25.764"/><path d="m194.689 71.026h-1.6a.432.432 0 0 0 -.431.431v5.843l-4.5-6.083-.034-.045-.027-.027-.007-.007-.025-.02-.011-.009-.023-.016-.014-.007-.023-.014-.014-.007-.027-.011h-.014l-.025-.009h-.016-.027-.018-.023-.03-.016-1.584a.431.431 0 0 0 -.431.431v9.824a.431.431 0 0 0 .431.431h1.6a.431.431 0 0 0 .431-.431v-5.842l4.511 6.089a.388.388 0 0 0 .111.108l.027.016.014.007.02.011.02.009h.016l.029.009a.468.468 0 0 0 .113.016h1.592a.432.432 0 0 0 .431-.431v-9.835a.432.432 0 0 0 -.426-.431z" transform="translate(-154.548 -45.263)"/></g></svg>