<svg height="75.839" viewBox="0 0 412.426 75.839" width="412.426" xmlns="http://www.w3.org/2000/svg"><g fill="#fff"><path d="m830.076 647.489c0-1.535-.942-2.306-2.816-2.306v-2.3h19.7v2.3a2.43 2.43 0 0 0 -1.6.578 2.09 2.09 0 0 0 -.708 1.728v58.081a2.1 2.1 0 0 0 .708 1.729 2.438 2.438 0 0 0 1.6.578v2.3h-19.7v-2.3c1.874 0 2.816-.771 2.816-2.307v-24.051h-41.2v24.051a2.109 2.109 0 0 0 .7 1.729 2.465 2.465 0 0 0 1.6.578v2.3h-19.32v-2.3q2.43 0 2.432-2.307v-58.081q0-2.3-2.432-2.306v-2.3h19.32v2.3a2.457 2.457 0 0 0 -1.6.578 2.1 2.1 0 0 0 -.7 1.728v21.75h41.2z" transform="translate(-771.864 -638.743)"/><path d="m927.557 643.2a52.545 52.545 0 0 1 11.13 1.087 25.127 25.127 0 0 1 8.574 3.453 15.97 15.97 0 0 1 5.5 6.142 20.4 20.4 0 0 1 1.915 9.278q0 8.441-4.987 12.92t-13.437 6.013l17.023 24.307a3.423 3.423 0 0 0 2.108 1.53 10.591 10.591 0 0 0 2.238.261v2.3h-23.921v-2.3a4.73 4.73 0 0 0 1.984-.386c.552-.255.827-.6.827-1.025a2.926 2.926 0 0 0 -.51-1.468q-.514-.836-1.536-2.24l-14.071-19.959h-18.294v22.771a1.962 1.962 0 0 0 .833 1.729 5.62 5.62 0 0 0 3.01.578v2.3h-22.143v-2.3q3.71 0 3.712-2.307v-58.084q0-2.3-3.712-2.307v-2.3zm-3.326 29.938a35.158 35.158 0 0 0 7.678-.7 13.6 13.6 0 0 0 4.863-1.984 7.41 7.41 0 0 0 2.555-3.008 9.621 9.621 0 0 0 0-7.549 7.4 7.4 0 0 0 -2.555-3 13.567 13.567 0 0 0 -4.863-1.983 35.167 35.167 0 0 0 -7.678-.7h-22.131v18.934z" transform="translate(-723.309 -638.606)"/><path d="m940.041 708.194q3.327 0 3.326-2.307v-58.087q0-2.3-3.326-2.307v-2.3h21.234v2.3q-3.325 0-3.326 2.307v58.082q0 2.3 3.326 2.307v2.3h-21.234z" transform="translate(-698.915 -638.606)"/><path d="m1011.1 644.156a35.246 35.246 0 0 1 9.725 3.071 18.978 18.978 0 0 1 6.783 5.5 13.535 13.535 0 0 1 2.556 8.382q0 6.011-3.712 9.271a26.362 26.362 0 0 1 -8.825 5.055v.255a25.1 25.1 0 0 1 10.173 5.7q4.155 3.9 4.155 11.192a15.446 15.446 0 0 1 -1.661 7.1 16.371 16.371 0 0 1 -4.924 5.695 24.477 24.477 0 0 1 -8 3.775 39.493 39.493 0 0 1 -10.749 1.342h-46.955v-2.3q3.577 0 3.581-2.307v-58.087q0-2.3-3.581-2.307v-2.3h40.043a65.978 65.978 0 0 1 11.391.963zm-8.823 25.4a26.411 26.411 0 0 0 9.532-1.474q3.772-1.467 3.773-6.205t-3.773-6.205a26.576 26.576 0 0 0 -9.532-1.468h-24.442v15.353zm0 29.168q8.058 0 11.578-2.493a7.932 7.932 0 0 0 0-13.182q-3.522-2.49-11.578-2.493h-24.442v18.169z" transform="translate(-690.402 -638.606)"/><path d="m1076.5 657.943a2.346 2.346 0 0 0 -1.089-2.108 7.355 7.355 0 0 0 -3.775-.7h-41.449v15.863h25.071a9.069 9.069 0 0 0 3.967-.7c.937-.469 1.411-1.688 1.411-3.65h2.3v19.952h-2.3c0-1.957-.473-3.217-1.411-3.774a7.87 7.87 0 0 0 -3.967-.827h-25.071v17.652h42.731a5.13 5.13 0 0 0 3.133-.9 2.85 2.85 0 0 0 1.219-2.43h2.3v17.528h-2.3q0-1.92-1.219-2.176a15.692 15.692 0 0 0 -3.133-.255h-59.619v-2.3a2.469 2.469 0 0 0 1.6-.578 2.1 2.1 0 0 0 .7-1.729v-58.077a2.1 2.1 0 0 0 -.7-1.728 2.463 2.463 0 0 0 -1.6-.579v-2.3h58.337a6.39 6.39 0 0 0 3.775-.833 2.671 2.671 0 0 0 1.089-2.239h2.3v16.888z" transform="translate(-667.14 -639.535)"/><path d="m865.969 639.995c-21.681 0-39.256 16.977-39.256 37.92s17.575 37.919 39.256 37.919 39.256-16.977 39.256-37.919-17.577-37.92-39.256-37.92zm0 62.746a24.826 24.826 0 1 1 24.721-24.826 24.775 24.775 0 0 1 -24.721 24.826z" transform="translate(-748.073 -639.995)"/></g></svg>