<svg xmlns="http://www.w3.org/2000/svg" xmlns:xlink="http://www.w3.org/1999/xlink" width="134.588" height="39.439" viewBox="0 0 134.588 39.439">
  <defs>
    <filter id="パス_1382" x="0" y="1.17" width="39.23" height="37.024" filterUnits="userSpaceOnUse">
      <feOffset dy="3" input="SourceAlpha"/>
      <feGaussianBlur stdDeviation="3" result="blur"/>
      <feFlood flood-opacity="0.161"/>
      <feComposite operator="in" in2="blur"/>
      <feComposite in="SourceGraphic"/>
    </filter>
    <filter id="パス_1383" x="45.369" y="1.298" width="38.868" height="37.023" filterUnits="userSpaceOnUse">
      <feOffset dy="3" input="SourceAlpha"/>
      <feGaussianBlur stdDeviation="3" result="blur-2"/>
      <feFlood flood-opacity="0.161"/>
      <feComposite operator="in" in2="blur-2"/>
      <feComposite in="SourceGraphic"/>
    </filter>
    <filter id="パス_1384" x="68.163" y="1.298" width="24.003" height="37.023" filterUnits="userSpaceOnUse">
      <feOffset dy="3" input="SourceAlpha"/>
      <feGaussianBlur stdDeviation="3" result="blur-3"/>
      <feFlood flood-opacity="0.161"/>
      <feComposite operator="in" in2="blur-3"/>
      <feComposite in="SourceGraphic"/>
    </filter>
    <filter id="パス_1385" x="76.117" y="1.298" width="38.434" height="37.023" filterUnits="userSpaceOnUse">
      <feOffset dy="3" input="SourceAlpha"/>
      <feGaussianBlur stdDeviation="3" result="blur-4"/>
      <feFlood flood-opacity="0.161"/>
      <feComposite operator="in" in2="blur-4"/>
      <feComposite in="SourceGraphic"/>
    </filter>
    <filter id="パス_1386" x="97.854" y="0.429" width="36.734" height="38.579" filterUnits="userSpaceOnUse">
      <feOffset dy="3" input="SourceAlpha"/>
      <feGaussianBlur stdDeviation="3" result="blur-5"/>
      <feFlood flood-opacity="0.161"/>
      <feComposite operator="in" in2="blur-5"/>
      <feComposite in="SourceGraphic"/>
    </filter>
    <filter id="パス_1387" x="22.23" y="0" width="40.195" height="39.439" filterUnits="userSpaceOnUse">
      <feOffset dy="3" input="SourceAlpha"/>
      <feGaussianBlur stdDeviation="3" result="blur-6"/>
      <feFlood flood-opacity="0.161"/>
      <feComposite operator="in" in2="blur-6"/>
      <feComposite in="SourceGraphic"/>
    </filter>
  </defs>
  <g id="グループ_1609" data-name="グループ 1609" transform="translate(-71 -292.788)">
    <g transform="matrix(1, 0, 0, 1, 71, 292.79)" filter="url(#パス_1382)">
      <path id="パス_1382-2" data-name="パス 1382" d="M788.32,644.184c0-.434-.266-.652-.8-.652v-.651h5.57v.651a.687.687,0,0,0-.452.163.591.591,0,0,0-.2.488V660.6a.592.592,0,0,0,.2.489.689.689,0,0,0,.452.163v.65h-5.57v-.65c.53,0,.8-.218.8-.652v-6.8H776.673v6.8a.6.6,0,0,0,.2.489.7.7,0,0,0,.454.163v.65h-5.461v-.65q.687,0,.687-.652V644.184q0-.651-.687-.652v-.651h5.461v.651a.7.7,0,0,0-.454.163.6.6,0,0,0-.2.488v6.148H788.32Z" transform="translate(-762.86 -635.71)" fill="#fff"/>
    </g>
    <g transform="matrix(1, 0, 0, 1, 71, 292.79)" filter="url(#パス_1383)">
      <path id="パス_1383-2" data-name="パス 1383" d="M896.171,643.2a14.86,14.86,0,0,1,3.146.307,7.1,7.1,0,0,1,2.424.976,4.515,4.515,0,0,1,1.556,1.736,5.767,5.767,0,0,1,.541,2.623,4.651,4.651,0,0,1-1.41,3.652,7.567,7.567,0,0,1-3.8,1.7l4.811,6.873a.967.967,0,0,0,.6.432,2.992,2.992,0,0,0,.633.074v.65h-6.762v-.65a1.337,1.337,0,0,0,.561-.109c.156-.072.234-.169.234-.29a.827.827,0,0,0-.144-.415c-.1-.158-.241-.368-.434-.633l-3.978-5.642h-5.173v6.437a.555.555,0,0,0,.236.489,1.589,1.589,0,0,0,.851.163v.65H883.8v-.65q1.049,0,1.049-.652V644.5q0-.651-1.049-.652v-.65Zm-.94,8.463a9.934,9.934,0,0,0,2.17-.2,3.841,3.841,0,0,0,1.375-.561,2.1,2.1,0,0,0,.722-.85,2.72,2.72,0,0,0,0-2.134,2.092,2.092,0,0,0-.722-.849,3.836,3.836,0,0,0-1.375-.561,9.942,9.942,0,0,0-2.17-.2h-6.258v5.352Z" transform="translate(-829.43 -635.9)" fill="#fff"/>
    </g>
    <g transform="matrix(1, 0, 0, 1, 71, 292.79)" filter="url(#パス_1384)">
      <path id="パス_1384-2" data-name="パス 1384" d="M940.041,661.572q.941,0,.94-.652V644.5q0-.651-.94-.652v-.65h6v.65q-.94,0-.94.652v16.419q0,.651.94.652v.65h-6Z" transform="translate(-862.88 -635.9)" fill="#fff"/>
    </g>
    <g transform="matrix(1, 0, 0, 1, 71, 292.79)" filter="url(#パス_1385)">
      <path id="パス_1385-2" data-name="パス 1385" d="M974.2,643.469a9.962,9.962,0,0,1,2.749.868,5.364,5.364,0,0,1,1.918,1.556,3.826,3.826,0,0,1,.723,2.369,3.3,3.3,0,0,1-1.049,2.621,7.453,7.453,0,0,1-2.495,1.429v.072a7.094,7.094,0,0,1,2.876,1.61,4.13,4.13,0,0,1,1.175,3.164,4.366,4.366,0,0,1-.47,2.007,4.629,4.629,0,0,1-1.392,1.61,6.921,6.921,0,0,1-2.261,1.067,11.164,11.164,0,0,1-3.039.379H959.666v-.65q1.011,0,1.012-.652V644.5q0-.651-1.012-.652v-.65h11.32A18.652,18.652,0,0,1,974.2,643.469Zm-2.494,7.18a7.467,7.467,0,0,0,2.695-.417,1.976,1.976,0,0,0,0-3.508,7.512,7.512,0,0,0-2.695-.415H964.8v4.34Zm0,8.246a5.816,5.816,0,0,0,3.273-.7,2.242,2.242,0,0,0,0-3.726,5.816,5.816,0,0,0-3.273-.7H964.8v5.136Z" transform="translate(-874.55 -635.9)" fill="#fff"/>
    </g>
    <g transform="matrix(1, 0, 0, 1, 71, 292.79)" filter="url(#パス_1386)">
      <path id="パス_1386-2" data-name="パス 1386" d="M1031.161,645.829a.664.664,0,0,0-.308-.6,2.08,2.08,0,0,0-1.067-.2h-11.717v4.484h7.087a2.562,2.562,0,0,0,1.121-.2c.265-.133.4-.477.4-1.032h.651v5.642h-.651c0-.553-.134-.909-.4-1.067a2.224,2.224,0,0,0-1.121-.234h-7.087v4.99h12.079a1.45,1.45,0,0,0,.886-.253.806.806,0,0,0,.345-.687h.65v4.955h-.65q0-.543-.345-.615a4.433,4.433,0,0,0-.886-.072h-16.853v-.65a.7.7,0,0,0,.452-.163.6.6,0,0,0,.2-.489V643.226a.594.594,0,0,0-.2-.489.7.7,0,0,0-.452-.164v-.65h16.491a1.806,1.806,0,0,0,1.067-.236.755.755,0,0,0,.308-.633h.65v4.774Z" transform="translate(-906.44 -634.63)" fill="#fff"/>
    </g>
    <g transform="matrix(1, 0, 0, 1, 71, 292.79)" filter="url(#パス_1387)">
      <path id="パス_1387-2" data-name="パス 1387" d="M837.809,639.995a10.726,10.726,0,1,0,11.1,10.72A10.913,10.913,0,0,0,837.809,639.995Zm0,17.737a7.018,7.018,0,1,1,6.988-7.018A7,7,0,0,1,837.809,657.732Z" transform="translate(-795.48 -633.99)" fill="#fff"/>
    </g>
  </g>
</svg>
