<svg xmlns="http://www.w3.org/2000/svg" width="814" height="583" viewBox="0 0 814 583"><defs><style>.cls-1,.cls-2,.cls-5{fill:#789;}.cls-1{opacity:0.54;}.cls-3,.cls-8{fill:none;}.cls-3{stroke:#789;stroke-miterlimit:10;}.cls-4,.cls-6{fill:#fff;}.cls-4,.cls-5{isolation:isolate;}.cls-7{fill:#a84236;}</style></defs><g id="レイヤー_2" data-name="レイヤー 2"><g id="レイヤー_1-2" data-name="レイヤー 1"><polygon class="cls-1" points="414.84 542.51 170.55 543.15 165.39 454 414.84 542.51"/><rect class="cls-2" x="150.93" y="221.2" width="425.58" height="16.17"/><rect class="cls-2" x="210.17" y="306.95" width="366.33" height="14.42"/><rect class="cls-2" x="210.17" y="306.95" width="366.33" height="14.42"/><rect class="cls-2" x="193.3" y="53.06" width="108.54" height="7.21"/><rect class="cls-2" x="87.78" y="342.55" width="235.13" height="14.42" transform="translate(-144.42 555.1) rotate(-90)"/><rect class="cls-2" x="279.82" y="405.8" width="197.71" height="14.42" transform="translate(-34.34 791.68) rotate(-90)"/><rect class="cls-2" x="314.64" y="210.33" width="188.02" height="12.38" transform="translate(192.13 625.17) rotate(-90)"/><rect class="cls-2" x="455.83" y="111.08" width="37.97" height="14.04" transform="translate(356.72 592.92) rotate(-90)"/><path class="cls-2" d="M455.57,436.76h38.5a0,0,0,0,1,0,0v14a0,0,0,0,1,0,0H455.66a.09.09,0,0,1-.09-.09V436.76A0,0,0,0,1,455.57,436.76Z" transform="translate(31.04 918.6) rotate(-90)"/><path class="cls-2" d="M412,482.87h79.92a0,0,0,0,1,0,0v13.47a.6.6,0,0,1-.6.6H412a0,0,0,0,1,0,0V482.87a0,0,0,0,1,0,0Z" transform="translate(-212.38 544.08) rotate(-51.97)"/><rect class="cls-2" x="341.48" y="272.51" width="262.67" height="10.04" transform="translate(195.29 750.35) rotate(-90)"/><rect class="cls-2" x="297.2" y="124.78" width="14.58" height="10.04" transform="translate(174.69 434.28) rotate(-90)"/><rect class="cls-2" x="210.17" y="404.61" width="366.33" height="29.25"/><rect class="cls-2" x="155.24" y="492.42" width="366.33" height="29.25" transform="translate(141.66 -69.93) rotate(14.89)"/><rect class="cls-1" x="632.73" y="443.78" width="162.44" height="96.39"/><circle class="cls-3" cx="39.84" cy="43.86" r="21.33"/><circle class="cls-4" cx="130.09" cy="82.56" r="5.58"/><circle class="cls-4" cx="563.92" cy="166.89" r="5.58"/><circle class="cls-4" cx="563.92" cy="274.22" r="5.58"/><circle class="cls-4" cx="584.37" cy="527.11" r="5.58"/><polygon class="cls-5" points="28.57 26.07 30.22 62.77 61.17 42.99 28.57 26.07"/><path class="cls-6" d="M655.74,471.44v-.5c1.17-.15,1.31-.33,1.06-1s-.59-1.6-1-2.74h-3.89c-.29.81-.56,1.51-.81,2.25-.4,1.17-.15,1.32,1.33,1.5v.5H648.3v-.5c1.13-.15,1.42-.27,2.05-1.89l3.73-9.46.58-.1c1.13,3.07,2.37,6.48,3.51,9.59.57,1.57.74,1.71,2,1.86v.5Zm-1.8-9.6c-.58,1.55-1.19,3.19-1.73,4.61h3.36Z"/><path class="cls-6" d="M660.25,463.91a11.29,11.29,0,0,0,2.61-.77v1.44l1.57-.9a2.6,2.6,0,0,1,1-.36,3.25,3.25,0,0,1,3.19,3.44c0,2.74-2.16,4.46-4.52,4.9a3,3,0,0,1-1.28-.33v2.43c0,1.34.15,1.44,1.53,1.57v.5h-4.26v-.5c1.17-.13,1.31-.22,1.31-1.42v-8.19c0-1.08,0-1.16-1.19-1.32Zm2.61,6.16a2.6,2.6,0,0,0,1.71.7c1.57,0,2.58-1.31,2.58-3.33s-1.14-3-2.41-3a3.57,3.57,0,0,0-1.88.78Z"/><path class="cls-6" d="M669.83,463.91a11.43,11.43,0,0,0,2.61-.77v1.44s1.49-.86,1.57-.9a2.6,2.6,0,0,1,1-.36,3.25,3.25,0,0,1,3.19,3.44c0,2.74-2.16,4.46-4.52,4.9a2.92,2.92,0,0,1-1.28-.33v2.43c0,1.34.14,1.44,1.53,1.57v.5H669.7v-.5c1.17-.13,1.32-.22,1.32-1.42v-8.19c0-1.08,0-1.16-1.19-1.32Zm2.61,6.16a2.58,2.58,0,0,0,1.71.7c1.57,0,2.57-1.31,2.57-3.33s-1.13-3-2.41-3a3.54,3.54,0,0,0-1.87.78Z"/><path class="cls-6" d="M679.3,471.44v-.5c1.15-.11,1.29-.2,1.29-1.39v-8.62c0-1.1-.09-1.21-1.24-1.35v-.47a12.74,12.74,0,0,0,2.67-.62v11.06c0,1.19.1,1.28,1.27,1.39v.5Z"/><path class="cls-6" d="M690.85,469.91a4.1,4.1,0,0,1-3,1.75,3.59,3.59,0,0,1-3.53-3.87,4.6,4.6,0,0,1,1.17-3.15,3.66,3.66,0,0,1,2.68-1.32,2.8,2.8,0,0,1,2.75,2.79c0,.36-.07.52-.36.6s-2.66.23-4.8.3c-.06,2.41,1.42,3.4,2.7,3.4a3.05,3.05,0,0,0,2.09-.91ZM687.76,464c-.83,0-1.64.78-1.89,2.24,1,0,2,0,3.08-.06.32,0,.43-.09.43-.36A1.68,1.68,0,0,0,687.76,464Z"/><path class="cls-6" d="M702.68,462.47c-.31-1.18-.81-2.35-2.5-2.35a1.79,1.79,0,0,0-1.89,2c0,1.24.79,1.87,2.28,2.64,2.16,1.12,3.1,1.95,3.1,3.66,0,1.89-1.64,3.33-4,3.33a7.72,7.72,0,0,1-2.76-.59,24.66,24.66,0,0,1-.48-2.7l.56-.15c.36,1.21,1.15,2.77,3,2.77a2,2,0,0,0,2.09-2.07c0-1.38-.74-1.94-2.32-2.8-1.89-1-3-1.9-3-3.57s1.34-3.11,3.71-3.11a11.75,11.75,0,0,1,2.38.34c.07.65.14,1.37.29,2.54Z"/><path class="cls-6" d="M708.6,471.42a1.73,1.73,0,0,1-.77.24c-1.16,0-1.77-.71-1.77-2.15v-5.24h-1.24l-.07-.21.48-.52h.83V462c.34-.36.87-.82,1.21-1.18l.27,0c0,.76-.06,1.8-.06,2.67h2.06a.56.56,0,0,1-.11.73h-1.95v4.61c0,1.46.58,1.73,1,1.73a2.56,2.56,0,0,0,1.1-.29l.16.47Z"/><path class="cls-6" d="M714.63,463.32a3.87,3.87,0,0,1,3.92,4,4,4,0,0,1-3.92,4.31,4,4,0,0,1-4-4A4.13,4.13,0,0,1,714.63,463.32Zm-.22.61c-1.09,0-2.08,1.06-2.08,3.15,0,2.29,1,3.95,2.48,3.95,1.12,0,2.05-.81,2.05-3.28C716.86,465.64,716,463.93,714.41,463.93Z"/><path class="cls-6" d="M724,471.44h-4.14v-.5c1.14-.11,1.24-.2,1.24-1.37v-3.75c0-1.18-.07-1.24-1.11-1.37V464a10.19,10.19,0,0,0,2.54-.73v2c.63-.94,1.38-1.93,2.28-1.93a.93.93,0,0,1,1.05.86,1.22,1.22,0,0,1-.62,1,.35.35,0,0,1-.46,0,1.14,1.14,0,0,0-.81-.45c-.38,0-1.05.56-1.44,1.48v3.38c0,1.19.09,1.28,1.47,1.39Z"/><path class="cls-6" d="M733.13,469.91a4.1,4.1,0,0,1-3,1.75,3.59,3.59,0,0,1-3.53-3.87,4.6,4.6,0,0,1,1.17-3.15,3.66,3.66,0,0,1,2.68-1.32,2.8,2.8,0,0,1,2.75,2.79c0,.36-.07.52-.36.6s-2.66.23-4.8.3c-.06,2.41,1.42,3.4,2.7,3.4a3.05,3.05,0,0,0,2.09-.91ZM730,464c-.83,0-1.64.78-1.89,2.24,1,0,2,0,3.08-.06.32,0,.43-.09.43-.36A1.68,1.68,0,0,0,730,464Z"/><path class="cls-6" d="M22.5,3.55c-.92.93-.9,1.17-.27,2.22.24.4.38.7,1.23,2l4.09,6.4-.25.15-12.17-4,2.78,4.35c.93,1.46,1.26,1.91,1.59,2.38.59.86,1,.91,2.27.35l.12.18-3.43,2.19-.12-.18c1-1,1.11-1.27.57-2.18-.23-.41-.56-1-1.48-2.43l-2.87-4.49a1.07,1.07,0,0,0-.62-.5,2.42,2.42,0,0,0-1.82.2L12,10l2.13-1.36,11.61,3.75L23,8.09c-.84-1.32-1-1.53-1.35-2C21,5.13,20.58,5,19.22,5.64l-.12-.18,3.28-2.1Z"/><rect class="cls-2" x="189.24" y="133.59" width="623.93" height="16.17"/><rect class="cls-4" x="189.24" y="133.59" width="414.37" height="16.17"/><rect class="cls-4" x="433.38" y="263.63" width="311.36" height="29.11" transform="translate(310.88 867.25) rotate(-90)"/><rect class="cls-2" x="376.02" y="26.44" width="65.26" height="12.38" transform="translate(376.02 441.28) rotate(-90)"/><rect class="cls-2" x="442.25" y="25.55" width="65.14" height="14.04" transform="translate(442.25 507.39) rotate(-90)"/><rect class="cls-2" x="271.92" y="27.55" width="65.14" height="10.04" transform="translate(271.92 337.05) rotate(-90)"/><rect class="cls-4" x="433.38" y="141.12" width="311.36" height="29.11" transform="translate(433.38 744.74) rotate(-90)"/><rect class="cls-4" x="544.55" y="459.91" width="143.47" height="32.89" transform="translate(139.93 1092.63) rotate(-90)"/><path class="cls-2" d="M112.57,53.27h120.1a0,0,0,0,1,0,0v14a0,0,0,0,1,0,0H112.51a0,0,0,0,1,0,0V53.35a.08.08,0,0,1,.08-.08Z" transform="translate(28.22 172.45) rotate(-57.1)"/><path class="cls-4" d="M194.08,40l-48.23,74.56a0,0,0,0,1,0,0L134.12,107a.08.08,0,0,1,0-.11L182.3,32.36S185,28.22,185,28.23L194.08,40A0,0,0,0,1,194.08,40Z"/><path class="cls-4" d="M-66.43,316.61H371a0,0,0,0,1,0,0v16.78a0,0,0,0,1,0,0H-66.43a0,0,0,0,1,0,0V316.61a0,0,0,0,1,0,0Z" transform="translate(-165.52 491.79) rotate(-92.58)"/><rect class="cls-4" x="154.39" y="87.89" width="84.72" height="15.01" transform="translate(101.36 292.14) rotate(-90)"/><rect class="cls-4" x="183.99" y="43.18" width="17.84" height="15.1" rx="0.23" transform="translate(271.64 234) rotate(-127.98)"/><rect class="cls-4" y="540.17" width="813.17" height="41.36"/><circle class="cls-7" cx="224.87" cy="112.82" r="13.71"/><path class="cls-6" d="M225.81,116.16h0Z"/><path class="cls-6" d="M222.24,106.54h9.31a1.59,1.59,0,0,0,1.44-1.67,1.39,1.39,0,1,0-2.74-.44h0a.09.09,0,0,1-.09.06H219a.1.1,0,0,1-.09,0h0a1.15,1.15,0,0,0-1.07-.73c-.62,0-1.09.51-1,1.33s.49,1.48,1.1,1.48h1.23a.13.13,0,0,1,.13.13V111a1.28,1.28,0,0,1-1.12,1.4,1.29,1.29,0,0,1,1.12,1.41v3.52a.12.12,0,0,1-.13.12H218a1.33,1.33,0,0,0-1.22,1.36,1.21,1.21,0,0,0,1.11,1.35,1.24,1.24,0,0,0,1.11-.84h0a.12.12,0,0,1,.1-.05h2.64s0,0,.06,0h0a1.12,1.12,0,0,0,1,.86,1.34,1.34,0,0,0,1.22-1.35,1.22,1.22,0,0,0-1.11-1.36h-.69a.13.13,0,0,1-.13-.13v-3.65a1.24,1.24,0,0,1,1.16-1.27,1.26,1.26,0,0,1-1.16-1.28v-.17a.73.73,0,0,1,.33-.62,2.59,2.59,0,0,1,1.3-.33c1.91,0,3.18.5,3.18,3.31l0,1.43a1.29,1.29,0,0,1-1.14,1.45c.17,0,1.19,0,1.19,1.64h0v1.82a2.87,2.87,0,0,0,2.42,2.81s1.92.41,2.94-.61h0a1.34,1.34,0,0,0,.35-.93,1.21,1.21,0,0,0-1.1-1.27,1.19,1.19,0,0,0-1.08,1.27V121h0a2.18,2.18,0,0,1-1.76-2.38l0-1a1.46,1.46,0,0,1,1.21-1.47,1.34,1.34,0,0,1-1.26-1.35l0-2.4c0-2.66-1.85-4.81-4.15-4.81a3.76,3.76,0,0,0-2.39.88v-1.71A.13.13,0,0,1,222.24,106.54Z"/><path class="cls-6" d="M492.65,511.87v-.22c1.42-.25,1.57-.41,1.57-1.8V502.2c0-1.5-.13-1.59-1.57-1.82v-.22h4.43v.22c-1.46.2-1.59.32-1.59,1.82v7.65c0,1.37.13,1.53,1.59,1.8v.22Z"/><path class="cls-6" d="M508,502.7a7.27,7.27,0,0,0-.35-1.06c-.3-.72-.57-1-1.65-1h-2.25v9.26c0,1.35.12,1.54,1.71,1.76v.22H500.8v-.22c1.59-.25,1.66-.43,1.66-1.76v-9.26h-2.29c-1,0-1.17.32-1.42.79a8.27,8.27,0,0,0-.47,1.28H498c.13-1,.22-1.94.27-2.84h.18c.22.27.33.3,1,.3H507c.52,0,.69-.05.85-.3h.21c0,.73.08,1.8.17,2.79Z"/><path class="cls-6" d="M515.19,499.91a5.75,5.75,0,0,1,5.69,5.94c0,3.78-2.62,6.29-5.84,6.29a5.78,5.78,0,0,1-5.71-5.95C509.33,502.93,511.57,499.91,515.19,499.91Zm-.35.4c-2.08,0-4,1.87-4,5.36s1.84,6.05,4.56,6.05c2.12,0,3.89-1.83,3.89-5.31C519.33,502.52,517.44,500.31,514.84,500.31Z"/><path class="cls-6" d="M537.52,500.38c-1.45.18-1.58.39-1.58,2v7.35c0,1.65.16,1.74,1.58,1.94v.22h-4.43v-.22c1.46-.2,1.57-.43,1.57-1.94v-3.95h-6.35v3.95c0,1.54.16,1.74,1.58,1.94v.22h-4.43v-.22c1.44-.18,1.57-.4,1.57-1.94v-7.35c0-1.71-.11-1.77-1.57-2v-.22h4.43v.22c-1.46.2-1.58.34-1.58,2v2.9h6.35v-2.9c0-1.62-.07-1.82-1.57-2v-.22h4.43Z"/><path class="cls-6" d="M542.4,504.12A3.67,3.67,0,0,1,546,508a3.84,3.84,0,0,1-3.66,4.12,3.73,3.73,0,0,1-3.69-3.83A3.93,3.93,0,0,1,542.4,504.12Zm-.22.38c-1.26,0-2.12,1.35-2.12,3.19,0,2.41,1.08,4,2.56,4,1.13,0,2-.85,2-3.39C544.67,506.34,543.82,504.5,542.18,504.5Z"/><path class="cls-6" d="M551.44,506.19c-.33-1.26-1-1.71-1.84-1.71a1.11,1.11,0,0,0-1.19,1.23c0,.88.63,1.26,1.49,1.71,1.27.63,2,1.2,2,2.3a2.47,2.47,0,0,1-2.63,2.36,4.89,4.89,0,0,1-1.74-.34,17.78,17.78,0,0,1-.36-1.89l.21-.05a2.29,2.29,0,0,0,2.17,1.92,1.23,1.23,0,0,0,1.33-1.31c0-.87-.53-1.32-1.41-1.8-1-.6-2-1.14-2-2.34a2.26,2.26,0,0,1,2.47-2.15,12.39,12.39,0,0,1,1.51.18c0,.35.18,1.53.22,1.82Z"/><path class="cls-6" d="M552.8,504.7a8.83,8.83,0,0,0,2.31-.76c0,.27-.06.87-.06,1.41l1.42-.85a2.54,2.54,0,0,1,1.09-.38,3.06,3.06,0,0,1,3,3.26,4.89,4.89,0,0,1-4.3,4.7,2.84,2.84,0,0,1-1.16-.32v2.72c0,1.67.17,1.74,1.41,1.94v.22h-3.8v-.22c1-.2,1.24-.27,1.24-1.66v-8.49c0-1.1-.2-1.19-1.1-1.39Zm2.25,6a2.36,2.36,0,0,0,1.73.65c1.6,0,2.52-1,2.52-3.26,0-2-1.13-3.06-2.36-3.06a3.23,3.23,0,0,0-1.89.7Z"/><path class="cls-6" d="M561.51,511.87v-.22c1.12-.18,1.19-.27,1.19-1.57v-3.62c0-1.22-.07-1.31-1-1.49v-.18a9.58,9.58,0,0,0,2.23-.7c0,.36,0,1.42,0,2.23v3.74c0,1.34.11,1.41,1.19,1.59v.22Zm1.7-10.09a.78.78,0,0,1-.76-.75.77.77,0,0,1,.77-.78.75.75,0,0,1,.76.78A.76.76,0,0,1,563.21,501.78Z"/><path class="cls-6" d="M568.91,511.9a1.22,1.22,0,0,1-.56.18c-1.06,0-1.58-.72-1.58-2.05v-5.2h-1.19l0-.08.21-.41h1v-1.71a14.66,14.66,0,0,0,1.08-1l.13,0c0,.32-.06,1.28-.06,2.72h1.93a.67.67,0,0,1-.11.49h-1.82v4.68c0,1.47.52,1.76,1.12,1.76a2.11,2.11,0,0,0,1-.27l.08.24Z"/><path class="cls-6" d="M575.93,512.08a1.22,1.22,0,0,1-.81-.36,1.37,1.37,0,0,1-.39-.81,6.22,6.22,0,0,1-2,1.17,2,2,0,0,1-2-2,1.58,1.58,0,0,1,1.28-1.58,16.55,16.55,0,0,0,2.71-1.07v-.54c0-1.29-.63-2.14-1.6-2.14a1,1,0,0,0-.79.33,3.32,3.32,0,0,0-.49,1.13.36.36,0,0,1-.34.29.69.69,0,0,1-.63-.63c0-.15.13-.29.43-.52a8.8,8.8,0,0,1,2.47-1.25,2.2,2.2,0,0,1,1.31.44,2.56,2.56,0,0,1,.78,2.19V510c0,.87.29,1.16.63,1.16a.87.87,0,0,0,.56-.18l.11.23Zm-1.19-4.3c-.3.2-1.24.56-1.72.79s-1,.61-1,1.26a1.3,1.3,0,0,0,1.31,1.35,2,2,0,0,0,1.41-.61C574.71,509.71,574.74,508.71,574.74,507.78Z"/><path class="cls-6" d="M577.61,511.87v-.22c1-.16,1.18-.25,1.18-1.59V501.4c0-1.44-.09-1.54-1.15-1.71v-.21a8.51,8.51,0,0,0,2.36-.61c0,.46,0,1.29,0,2.5v8.69c0,1.3.07,1.41,1.15,1.59v.22Z"/><path class="cls-6" d="M513.69,279.66v-.21c1.42-.26,1.46-.42,1.48-2.18l.05-8c-1.55,3.28-4.48,9.62-4.79,10.41h-.18c-.2-.56-2.18-5.31-4.26-10.21-.24,6.86-.22,7.76-.22,8.5,0,1,.25,1.32,1.62,1.5v.21h-3.91v-.21c1.25-.17,1.48-.49,1.57-1.48.07-.76.13-1.78.47-8.41,0-.76,0-1.21-1.66-1.39V268h2.79l4.18,9.43,4.55-9.43h2.76v.21c-1.57.24-1.69.42-1.69,2.08l0,7c0,1.82.18,1.94,1.66,2.18v.21Z"/><path class="cls-6" d="M524.51,279.88a1.22,1.22,0,0,1-.81-.36,1.37,1.37,0,0,1-.4-.81,6.11,6.11,0,0,1-2,1.17,2,2,0,0,1-2-2,1.6,1.6,0,0,1,1.28-1.59,16.29,16.29,0,0,0,2.72-1.06v-.54c0-1.3-.63-2.14-1.6-2.14a1,1,0,0,0-.79.32,3.2,3.2,0,0,0-.49,1.14.35.35,0,0,1-.34.28.68.68,0,0,1-.63-.63c0-.14.12-.28.43-.52a8.53,8.53,0,0,1,2.47-1.24,2.21,2.21,0,0,1,1.31.43,2.6,2.6,0,0,1,.77,2.2v3.22c0,.87.29,1.15.63,1.15a.8.8,0,0,0,.56-.18l.11.24Zm-1.19-4.3c-.31.19-1.24.55-1.73.79s-1,.61-1,1.26a1.31,1.31,0,0,0,1.32,1.35,1.93,1.93,0,0,0,1.4-.61C523.28,277.5,523.32,276.51,523.32,275.58Z"/><path class="cls-6" d="M526.34,279.66v-.21c1.12-.18,1.19-.27,1.19-1.57v-3.62c0-1.22-.07-1.31-1-1.49v-.18a9.77,9.77,0,0,0,2.23-.71c0,.36,0,1.43,0,2.24v3.74c0,1.33.11,1.41,1.19,1.59v.21Zm1.7-10.08a.79.79,0,0,1-.76-.76.76.76,0,0,1,.77-.77.74.74,0,0,1,.76.77A.76.76,0,0,1,528,269.58Z"/><path class="cls-6" d="M535,274c-.32-1.26-1-1.71-1.83-1.71A1.11,1.11,0,0,0,532,273.5c0,.89.63,1.26,1.49,1.71,1.26.63,2,1.21,2,2.31a2.48,2.48,0,0,1-2.63,2.36,5.19,5.19,0,0,1-1.75-.34c-.08-.29-.3-1.44-.36-1.89l.22-.06a2.28,2.28,0,0,0,2.16,1.93,1.23,1.23,0,0,0,1.33-1.32c0-.86-.52-1.31-1.4-1.8-1-.59-2-1.13-2-2.34a2.25,2.25,0,0,1,2.47-2.14,10.84,10.84,0,0,1,1.51.18c0,.34.18,1.53.22,1.82Z"/><path class="cls-6" d="M542.6,278.15a4,4,0,0,1-2.68,1.73c-2.13,0-3.35-1.78-3.35-3.75a4.31,4.31,0,0,1,1.08-3,3.64,3.64,0,0,1,2.5-1.24,2.47,2.47,0,0,1,2.48,2.39c0,.27,0,.44-.09.45a33.92,33.92,0,0,1-4.86.28c0,2.88,1.53,3.85,2.81,3.85a2.76,2.76,0,0,0,2-.92Zm-3-5.74c-.89,0-1.68.66-1.91,2.16,1.08,0,3.11,0,3.47-.06.09,0,.13-.11.13-.29A1.67,1.67,0,0,0,539.65,272.41Z"/><path class="cls-6" d="M548.25,279.66v-.21c1.12-.15,1.19-.27,1.19-1.68V275c0-1.1-.34-2.16-1.62-2.16a3,3,0,0,0-2,.87v4.19c0,1.32.13,1.41,1.16,1.59v.21h-3.52v-.21c1.14-.17,1.19-.33,1.19-1.57v-3.64c0-1.11-.05-1.22-.91-1.46v-.18a6.65,6.65,0,0,0,2.12-.75c0,.32,0,.81,0,1.46.35-.27.78-.58,1.23-.89a2.53,2.53,0,0,1,1.35-.5c1.37,0,2.16,1,2.16,2.66v3.34c0,1.26.11,1.36,1,1.53v.21Z"/><path class="cls-6" d="M521.31,163.26C521,162,520.44,161,518.8,161a1.9,1.9,0,0,0-2,2.07c0,1.39.78,2,2.18,2.78s3,1.71,3,3.65a3.46,3.46,0,0,1-3.69,3.35,7.31,7.31,0,0,1-2.56-.52c-.1-.49-.37-2.07-.41-2.41l.25-.06a3.16,3.16,0,0,0,3,2.61,2.17,2.17,0,0,0,2.18-2.41c0-1.39-.93-2.14-2.19-2.92s-2.83-1.69-2.83-3.51a3.12,3.12,0,0,1,3.42-3,9.63,9.63,0,0,1,2.18.28c.07.63.16,1.48.29,2.33Z"/><path class="cls-6" d="M527.71,172.55v-.21c1-.17,1.19-.29,1.19-1.59v-2.86c0-1.5-.41-2.29-1.65-2.29a2.8,2.8,0,0,0-1.91.88v4.27c0,1.22.11,1.44,1.15,1.59v.21h-3.4v-.21c1-.13,1.09-.28,1.09-1.53v-9c0-1.33-.23-1.33-1.15-1.5v-.18a7.92,7.92,0,0,0,2.36-.61c0,.36,0,1.46,0,2.25v4.3a3.66,3.66,0,0,1,2.57-1.29c1.23,0,2.16.81,2.16,2.86v3.26c0,1.13.09,1.21,1,1.41v.21Z"/><path class="cls-6" d="M532,172.55v-.21c1.11-.19,1.18-.28,1.18-1.57v-3.62c0-1.22-.07-1.31-1-1.5v-.18a9.58,9.58,0,0,0,2.23-.7c0,.36,0,1.43,0,2.24v3.74c0,1.33.11,1.4,1.19,1.59v.21Zm1.69-10.08a.79.79,0,0,1-.76-.76.77.77,0,0,1,.78-.77.74.74,0,0,1,.75.77A.76.76,0,0,1,533.69,162.47Z"/><path class="cls-6" d="M541,172.55v-.21c1.11-.15,1.19-.28,1.19-1.68v-2.81c0-1.1-.35-2.16-1.63-2.16a3,3,0,0,0-1.94.87v4.19c0,1.31.13,1.4,1.15,1.59v.21h-3.51v-.21c1.14-.17,1.19-.33,1.19-1.57v-3.64c0-1.11-.05-1.22-.92-1.46v-.18a6.62,6.62,0,0,0,2.13-.75,14.1,14.1,0,0,0,0,1.46c.34-.27.77-.58,1.22-.89a2.59,2.59,0,0,1,1.36-.5c1.36,0,2.16,1,2.16,2.66v3.34c0,1.25.1,1.36,1,1.53v.21Z"/><path class="cls-6" d="M552.61,165.22c-.83.2-1,.34-1.35,1.25-.52,1.2-1,2.52-2.29,5.78-1.08,2.75-1.49,3.87-1.76,4.77-.09.36-.26.5-.47.5a.84.84,0,0,1-.9-.72c0-.14.07-.27.43-.54a4,4,0,0,0,1.33-1.8c.38-.88.6-1.35.74-1.75a.58.58,0,0,0,0-.45c-.72-2-1.64-4.21-2.14-5.54-.45-1.14-.52-1.3-1.5-1.5V165H548v.2c-.84.24-.91.34-.65,1.07L549,171c.54-1.44,1.41-3.8,1.68-4.66.21-.67.07-.83-1-1.07V165h2.88Z"/><path class="cls-6" d="M530.22,181.6a5.75,5.75,0,0,1,5.69,5.94c0,3.78-2.61,6.28-5.84,6.28a5.77,5.77,0,0,1-5.7-5.94C524.37,184.62,526.6,181.6,530.22,181.6Zm-.35.39c-2.08,0-4,1.87-4,5.37s1.84,6,4.56,6c2.12,0,3.89-1.84,3.89-5.31C534.36,184.21,532.47,182,529.87,182Z"/><path class="cls-6" d="M548.38,186.22c-1,.25-1.1.45-1.4,1.28-.44,1.19-1.44,4.09-2.2,6.27h-.27c-.54-1.59-1.5-4.05-2.13-5.66-.64,1.64-1.54,3.8-2.23,5.66h-.25c-.61-2-1.71-5.33-2.07-6.45-.27-.76-.38-.93-1.28-1.1V186h3.37v.2c-1.08.22-1.1.36-.88,1.1.35,1.23,1,3.13,1.42,4.49.61-1.48,1.51-3.84,2.21-5.71h.2c.65,1.8,1.4,3.83,2.12,5.76.55-1.55,1-3.08,1.44-4.43.24-.79.15-1-1-1.21V186h3Z"/><path class="cls-6" d="M548.32,193.55v-.21c1-.17,1.19-.26,1.19-1.59v-8.66c0-1.44-.09-1.55-1.15-1.71v-.22a8.26,8.26,0,0,0,2.36-.61c0,.47-.06,1.3-.06,2.5v8.7c0,1.3.08,1.4,1.16,1.59v.21Z"/><path class="cls-6" d="M62.47,78.85c-.32-1.26-.86-2.29-2.5-2.29a1.9,1.9,0,0,0-2,2.07c0,1.39.77,2,2.18,2.77s3,1.72,3,3.66a3.47,3.47,0,0,1-3.69,3.35,7.55,7.55,0,0,1-2.56-.52c-.11-.49-.38-2.07-.41-2.42l.25,0a3.16,3.16,0,0,0,3,2.61,2.18,2.18,0,0,0,2.18-2.41c0-1.39-.94-2.14-2.2-2.92S56.86,81,56.86,79.19a3.13,3.13,0,0,1,3.42-3,9.46,9.46,0,0,1,2.18.29c.07.63.16,1.48.28,2.32Z"/><path class="cls-6" d="M68.88,88.14v-.22c1-.16,1.19-.28,1.19-1.58V83.48c0-1.5-.42-2.29-1.66-2.29a2.82,2.82,0,0,0-1.91.88v4.27c0,1.22.11,1.44,1.16,1.58v.22H64.25v-.22c1-.12,1.1-.27,1.1-1.53v-9c0-1.34-.23-1.34-1.15-1.5v-.18a8.24,8.24,0,0,0,2.36-.61c0,.36-.06,1.46-.06,2.25v4.3a3.7,3.7,0,0,1,2.58-1.29c1.22,0,2.16.81,2.16,2.86v3.26c0,1.13.09,1.2,1,1.4v.22Z"/><path class="cls-6" d="M73.16,88.14v-.22c1.12-.18,1.19-.27,1.19-1.56V82.74c0-1.23-.07-1.32-1-1.5v-.18a9.58,9.58,0,0,0,2.23-.7c0,.36,0,1.42,0,2.23v3.75c0,1.33.11,1.4,1.19,1.58v.22Zm1.7-10.08a.79.79,0,0,1-.76-.76.76.76,0,0,1,.77-.77.74.74,0,0,1,.76.77A.77.77,0,0,1,74.86,78.06Z"/><path class="cls-6" d="M81.14,80.52a1.49,1.49,0,0,1,.57-.12A3.4,3.4,0,0,1,85.06,84a4.29,4.29,0,0,1-4.28,4.35,7.07,7.07,0,0,1-2.43-.57c0-.45,0-.92,0-1.37V77.57c0-1.24-.07-1.42-1.17-1.62v-.2a9.33,9.33,0,0,0,2.38-.61c0,.52,0,1.64,0,2.36v3.72Zm-1.6,5.69a1.63,1.63,0,0,0,.09.65,2,2,0,0,0,1.94,1c1.53,0,2.16-1.36,2.16-3.31S82.6,81.24,81,81.24a3.38,3.38,0,0,0-1.42.27Z"/><path class="cls-6" d="M94,87.72a10,10,0,0,0-2.42.63c0-.26.06-.9.06-1.4a4.09,4.09,0,0,1-2.56,1.4c-1.11,0-2-.66-2-2.44v-3.8c0-.78-.25-.94-.72-1L86,81v-.2a16.78,16.78,0,0,0,2.25-.3c0,.36-.05.91-.05,2.43v2.45c0,1.62.76,2,1.55,2a2.37,2.37,0,0,0,1.91-.85V82.31c0-1-.22-1.1-.88-1.23L90.37,81v-.22a13.64,13.64,0,0,0,2.47-.3v5.79c0,1,.14,1.08.75,1.16l.44,0Z"/><path class="cls-6" d="M102,80.81c-.83.2-1,.34-1.35,1.24-.52,1.21-1,2.52-2.29,5.78-1.08,2.76-1.49,3.87-1.76,4.77-.09.36-.26.51-.47.51a.84.84,0,0,1-.9-.72c0-.15.07-.27.43-.54A4.1,4.1,0,0,0,97,90.05c.38-.88.6-1.35.74-1.75a.58.58,0,0,0,0-.45c-.72-2-1.64-4.21-2.14-5.54-.45-1.14-.52-1.3-1.5-1.5v-.2h3.26v.2c-.84.24-.92.34-.65,1.06l1.73,4.67c.54-1.44,1.41-3.8,1.68-4.67.21-.66.07-.82-1-1.06v-.2H102Z"/><path class="cls-6" d="M107.36,88.35a1.17,1.17,0,0,1-.81-.36,1.31,1.31,0,0,1-.39-.81,6.22,6.22,0,0,1-2,1.17,2,2,0,0,1-2-2,1.58,1.58,0,0,1,1.28-1.58,17.21,17.21,0,0,0,2.72-1.06v-.54c0-1.3-.63-2.14-1.61-2.14a1,1,0,0,0-.79.32,3.42,3.42,0,0,0-.49,1.13.35.35,0,0,1-.34.29.69.69,0,0,1-.63-.63c0-.14.13-.29.43-.52a8.53,8.53,0,0,1,2.47-1.24,2.24,2.24,0,0,1,1.32.43,2.59,2.59,0,0,1,.77,2.2v3.22c0,.86.29,1.15.63,1.15a.82.82,0,0,0,.56-.18l.11.23Zm-1.18-4.3c-.31.2-1.25.56-1.73.79s-1,.62-1,1.26a1.3,1.3,0,0,0,1.31,1.35,2,2,0,0,0,1.41-.61C106.14,86,106.18,85,106.18,84.05Z"/><path class="cls-6" d="M68.29,97.65c-1.28.29-1.39.51-1.42,1.73,0,.47-.06.79-.06,2.36v7.6h-.29l-8.08-10v5.17c0,1.73,0,2.28.05,2.86,0,1,.33,1.28,1.73,1.51v.22H56.15v-.22c1.34-.3,1.62-.47,1.66-1.53,0-.47,0-1.13,0-2.84V99.22a1.08,1.08,0,0,0-.25-.76A2.44,2.44,0,0,0,56,97.65v-.21h2.52l7.76,9.41v-5.11c0-1.57,0-1.82,0-2.43-.07-1.15-.31-1.48-1.8-1.66v-.21h3.89Z"/><path class="cls-6" d="M77,108.72a10,10,0,0,0-2.42.63c0-.26.06-.9.06-1.4a4.09,4.09,0,0,1-2.56,1.4c-1.12,0-2.05-.66-2.05-2.44v-3.8c0-.78-.25-.94-.72-1L69,102v-.2a16.78,16.78,0,0,0,2.25-.3c0,.36,0,.91,0,2.43v2.45c0,1.62.76,2,1.55,2a2.38,2.38,0,0,0,1.91-.85v-4.26c0-1-.22-1.1-.88-1.23l-.42-.07v-.22a13.64,13.64,0,0,0,2.47-.3v5.79c0,1,.14,1.08.75,1.16l.44,0Z"/><path class="cls-6" d="M81.5,109.14H77.83v-.22c1-.16,1.11-.25,1.11-1.56v-3.62c0-1.15,0-1.26-.92-1.48v-.18a7.62,7.62,0,0,0,2.15-.76c0,.33,0,1.28-.06,2,.43-.76,1.35-1.87,2.18-1.87a.82.82,0,0,1,.88.7,1.09,1.09,0,0,1-.45.83.3.3,0,0,1-.41,0,1.14,1.14,0,0,0-.81-.45c-.36,0-.92.39-1.39,1.29v3.59c0,1.28.09,1.36,1.39,1.56Z"/><path class="cls-6" d="M88,103.47c-.32-1.26-1-1.71-1.83-1.71A1.1,1.1,0,0,0,85,103c0,.88.63,1.26,1.49,1.71,1.26.63,2,1.21,2,2.31a2.47,2.47,0,0,1-2.63,2.35,4.89,4.89,0,0,1-1.74-.34,17.78,17.78,0,0,1-.36-1.89l.21-.05A2.29,2.29,0,0,0,86.12,109a1.24,1.24,0,0,0,1.34-1.31c0-.86-.53-1.31-1.41-1.8-1-.59-2-1.13-2-2.34a2.25,2.25,0,0,1,2.47-2.14,10.84,10.84,0,0,1,1.51.18c0,.34.18,1.53.22,1.81Z"/><path class="cls-6" d="M95.61,107.63a4,4,0,0,1-2.68,1.72,3.45,3.45,0,0,1-3.35-3.74,4.31,4.31,0,0,1,1.08-3,3.62,3.62,0,0,1,2.5-1.24,2.48,2.48,0,0,1,2.49,2.39c0,.27,0,.43-.09.45a33.13,33.13,0,0,1-4.86.27c-.06,2.88,1.53,3.85,2.8,3.85a2.83,2.83,0,0,0,2-.91Zm-3-5.75c-.88,0-1.68.67-1.91,2.16a32.57,32.57,0,0,0,3.47-.05c.09,0,.13-.11.13-.29A1.68,1.68,0,0,0,92.66,101.88Z"/><path class="cls-6" d="M100.27,109.14H96.6v-.22c1-.16,1.12-.25,1.12-1.56v-3.62c0-1.15,0-1.26-.92-1.48v-.18a7.45,7.45,0,0,0,2.14-.76c0,.33,0,1.28,0,2,.43-.76,1.35-1.87,2.17-1.87a.82.82,0,0,1,.89.7,1.09,1.09,0,0,1-.45.83.31.31,0,0,1-.42,0,1.13,1.13,0,0,0-.81-.45c-.36,0-.92.39-1.38,1.29v3.59c0,1.28.09,1.36,1.38,1.56Z"/><path class="cls-6" d="M109.67,101.81c-.83.2-1,.34-1.35,1.24-.52,1.21-1,2.52-2.29,5.78-1.08,2.76-1.49,3.87-1.76,4.77-.09.36-.25.51-.47.51a.84.84,0,0,1-.9-.72c0-.15.07-.27.43-.54a4,4,0,0,0,1.33-1.8c.38-.88.6-1.35.74-1.75a.54.54,0,0,0,0-.45c-.72-2-1.64-4.21-2.14-5.54-.45-1.14-.52-1.3-1.49-1.5v-.2H105v.2c-.84.24-.91.34-.64,1.06l1.72,4.67c.54-1.44,1.41-3.8,1.68-4.67.22-.66.07-.82-1-1.06v-.2h2.88Z"/><path class="cls-6" d="M62.47,120.85c-.32-1.26-.86-2.29-2.5-2.29a1.9,1.9,0,0,0-2,2.07c0,1.39.77,2,2.18,2.77s3,1.72,3,3.66a3.47,3.47,0,0,1-3.69,3.35,7.55,7.55,0,0,1-2.56-.52c-.11-.49-.38-2.07-.41-2.42l.25,0a3.16,3.16,0,0,0,3,2.61,2.18,2.18,0,0,0,2.18-2.41c0-1.39-.94-2.14-2.2-2.92s-2.82-1.69-2.82-3.51a3.13,3.13,0,0,1,3.42-3,9.46,9.46,0,0,1,2.18.29c.07.63.16,1.48.28,2.32Z"/><path class="cls-6" d="M70.65,128.57a4.15,4.15,0,0,1-2.85,1.78,3.39,3.39,0,0,1-3.35-3.52,4.15,4.15,0,0,1,1.75-3.46,4.62,4.62,0,0,1,2.46-1,2.46,2.46,0,0,1,1.57.46.5.5,0,0,1,.2.4c0,.31-.34.7-.52.7s-.13,0-.31-.19a2.63,2.63,0,0,0-1.75-.63c-1.24,0-2.25.73-2.26,2.82,0,2.56,1.76,3.4,2.73,3.4a2.71,2.71,0,0,0,2.16-1Z"/><path class="cls-6" d="M75.86,130.14v-.22c1-.16,1.19-.28,1.19-1.58v-2.86c0-1.5-.41-2.29-1.65-2.29a2.8,2.8,0,0,0-1.91.88v4.27c0,1.22.1,1.44,1.15,1.58v.22h-3.4v-.22c1-.12,1.1-.27,1.1-1.53v-9c0-1.34-.24-1.34-1.16-1.5v-.18a8.24,8.24,0,0,0,2.36-.61c0,.36-.05,1.46-.05,2.25v4.3a3.66,3.66,0,0,1,2.57-1.29c1.23,0,2.16.81,2.16,2.86v3.26c0,1.13.09,1.2,1,1.4v.22Z"/><path class="cls-6" d="M84,122.4a3.67,3.67,0,0,1,3.64,3.83A3.83,3.83,0,0,1,84,130.35a3.73,3.73,0,0,1-3.69-3.83A3.92,3.92,0,0,1,84,122.4Zm-.21.37c-1.26,0-2.13,1.36-2.13,3.19,0,2.41,1.08,4,2.56,4,1.13,0,2-.84,2-3.38C86.25,124.61,85.4,122.77,83.77,122.77Z"/><path class="cls-6" d="M92.46,122.4a3.67,3.67,0,0,1,3.64,3.83,3.84,3.84,0,0,1-3.66,4.12,3.73,3.73,0,0,1-3.69-3.83A3.92,3.92,0,0,1,92.46,122.4Zm-.22.37c-1.26,0-2.12,1.36-2.12,3.19,0,2.41,1.08,4,2.56,4,1.13,0,2-.84,2-3.38C94.73,124.61,93.88,122.77,92.24,122.77Z"/><path class="cls-6" d="M96.94,130.14v-.22c1-.16,1.19-.25,1.19-1.58v-8.66c0-1.44-.09-1.55-1.15-1.71v-.22a8.43,8.43,0,0,0,2.35-.61c0,.47,0,1.3,0,2.5v8.7c0,1.3.07,1.4,1.15,1.58v.22Z"/><path class="cls-6" d="M229.83,74.63c-1.78.18-1.94.32-1.94,2.21v8.73c0,1.89.18,2,1.94,2.19v.84h-7.05v-.84c1.8-.23,1.94-.3,1.94-2.19V81.29h-6.15v4.28c0,1.89.2,2,1.91,2.19v.84h-7v-.84c1.69-.18,1.94-.3,1.94-2.19V76.84c0-1.89-.21-2.07-1.94-2.21v-.84h7v.84c-1.73.16-1.91.32-1.91,2.21V80.1h6.15V76.84c0-1.89-.23-2-1.94-2.21v-.84h7.05Z"/><path class="cls-6" d="M239.68,73.47A7.42,7.42,0,0,1,247.34,81a7.82,7.82,0,1,1-7.66-7.57Zm-.34,1c-2.33,0-4,2.28-4,6.32,0,3.85,1.53,7.15,4.61,7.15,2.16,0,3.85-2.09,3.85-6.27C243.76,77.16,242,74.47,239.34,74.47Z"/><path class="cls-6" d="M263.55,88.74c-.14,0-.41,0-.68,0-2.9-.14-3.74-.75-4.43-1.71a44.28,44.28,0,0,1-2.35-4,1.28,1.28,0,0,0-1.39-.76l-.45,0v3.33c0,1.85.23,2,1.94,2.21v.84h-7v-.84c1.73-.18,1.94-.36,1.94-2.21V76.82c0-1.8-.23-2-1.94-2.19v-.84h6.61c2,0,3.19.22,4.13.86a3.49,3.49,0,0,1,1.52,3,3.89,3.89,0,0,1-2.84,3.7c.34.68,1.23,2.16,1.91,3.21A18.39,18.39,0,0,0,262.27,87a2.8,2.8,0,0,0,1.44,1Zm-8.69-7.45a3.33,3.33,0,0,0,2.24-.6A3.23,3.23,0,0,0,258.17,78c0-2.42-1.39-3.29-2.67-3.29a1.59,1.59,0,0,0-1.05.23c-.16.14-.2.41-.2.87v5.45Z"/><path class="cls-6" d="M264.08,88.6v-.84c1.73-.16,1.93-.3,1.93-2.21V76.86c0-1.91-.22-2.09-1.93-2.23v-.84h7v.84c-1.71.16-1.94.32-1.94,2.23v8.69c0,1.89.21,2,1.94,2.21v.84Z"/><path class="cls-6" d="M281.77,80.44c2.39.44,4.08,1.58,4.08,3.74a4.1,4.1,0,0,1-2.19,3.47,9,9,0,0,1-4.33.95H273v-.84c1.75-.18,1.93-.3,1.93-2.21V76.86c0-1.91-.29-2.12-1.91-2.23v-.84h6.93a6.74,6.74,0,0,1,3.74.79A3,3,0,0,1,285,77.12C285,79,283.25,80.15,281.77,80.44Zm-2.9-.29c2.17,0,3-.94,3-2.62a2.46,2.46,0,0,0-2.56-2.74,2.24,2.24,0,0,0-1.07.18c-.25.16-.23.37-.23.85v4.33ZM278,85.5c0,1.65.76,2.15,2,2.12s2.48-1.11,2.48-3.23-1.11-3.26-3.67-3.26H278Z"/><path class="cls-6" d="M300.19,84.73c-.11.61-.75,3.24-1,3.87H287.4v-.82c2.08-.2,2.21-.32,2.21-2.23V76.84c0-1.94-.27-2.07-1.82-2.21v-.84h7.41c2.39,0,3.19,0,3.51-.05,0,.41.14,2.28.23,3.69l-.89.12a5.73,5.73,0,0,0-1-2.12c-.41-.46-.71-.59-1.87-.59h-1.48c-.87,0-1,0-1,.82v4.76H295c1.28,0,1.51-.34,1.85-2h.89v5.08h-.89c-.37-1.68-.55-2-1.87-2h-2.21V85.5c0,1.58,0,2.06,1.46,2.08h1.62c1.27,0,1.62-.16,2.12-.78a10.23,10.23,0,0,0,1.39-2.28Z"/><path class="cls-6" d="M322.24,79.71a2.69,2.69,0,0,0-2.51,1.49c-.66.82-1.3,1.66-2,2.64a28.53,28.53,0,0,1,4.08,4.81l-.11.27a7.3,7.3,0,0,1-4-.79c-.29-.3-1.05-1-1.87-1.87-1.43,1.84-2.82,2.66-4.47,2.66a4.37,4.37,0,0,1-4.74-4.24c0-1.91,1-2.73,3.26-4.08a4.45,4.45,0,0,1-1.57-3.28,4,4,0,0,1,4.17-3.83c2.33,0,3.83,1.44,3.83,3.31a2.31,2.31,0,0,1-1,1.93,21.32,21.32,0,0,1-1.85,1.17c.64.52,2,1.75,3.58,3.26a13.21,13.21,0,0,0,1.16-1.92c.48-1,.44-1.37-1.23-1.53v-.86h5.27Zm-9.78,7.12a3.7,3.7,0,0,0,2.69-1.3,58.93,58.93,0,0,0-4.63-4.31,2.84,2.84,0,0,0-1,2.41A2.91,2.91,0,0,0,312.46,86.83Zm-.18-12.41a1.72,1.72,0,0,0-1.55,1.92c0,1.14.5,1.8,2,3A3,3,0,0,0,314,76.68C314,75.52,313.48,74.42,312.28,74.42Z"/><path class="cls-6" d="M340.75,84.59c-.18,1-.82,3.4-1,4H328.42v-.84c2-.14,2.19-.3,2.19-2.21V76.86c0-1.91-.23-2.09-1.94-2.23v-.84h7.11v.84c-1.77.16-2,.32-2,2.23v8.85c0,1.25,0,1.82,1.3,1.85,0,0,1.09,0,1.18,0a2.29,2.29,0,0,0,2.19-.89,9.76,9.76,0,0,0,1.44-2.37Z"/><path class="cls-6" d="M342.05,88.6v-.84c1.74-.16,1.94-.3,1.94-2.21V76.86c0-1.91-.23-2.09-1.94-2.23v-.84h7.05v.84c-1.71.16-1.94.32-1.94,2.23v8.69c0,1.89.21,2,1.94,2.21v.84Z"/><path class="cls-6" d="M363,84.59c-.19,1-.82,3.4-1,4H350.67v-.84c2-.14,2.19-.3,2.19-2.21V76.86c0-1.91-.23-2.09-1.94-2.23v-.84H358v.84c-1.78.16-2,.32-2,2.23v8.85c0,1.25.05,1.82,1.3,1.85.05,0,1.09,0,1.18,0a2.28,2.28,0,0,0,2.19-.89,9.45,9.45,0,0,0,1.44-2.37Z"/><path class="cls-6" d="M377.46,74.63a3,3,0,0,0-2.8,1.87c-.82,1.41-1.53,2.67-2.65,5a2.3,2.3,0,0,0-.25,1.2v2.83c0,2,.18,2,2.05,2.28v.84h-7.2v-.84c1.8-.23,2-.3,2-2.28V82.86a2,2,0,0,0-.25-1c-.66-1.34-1.51-2.87-2.87-5.27-.85-1.48-1.19-1.77-2.51-1.91v-.84h6.68v.84c-1.53.21-1.48.5-1.09,1.3.75,1.48,1.73,3.3,2.59,5,.69-1.28,1.78-3.47,2.42-4.86.43-.91.25-1.2-1.39-1.41v-.84h5.31Z"/><path class="cls-6" d="M390.39,73.47A7.42,7.42,0,0,1,398.05,81a7.82,7.82,0,1,1-7.66-7.57Zm-.34,1c-2.33,0-4,2.28-4,6.32,0,3.85,1.53,7.15,4.61,7.15,2.16,0,3.85-2.09,3.85-6.27C394.47,77.16,392.69,74.47,390.05,74.47Z"/><path class="cls-6" d="M410.48,77.57a5.93,5.93,0,0,0-1-2.14c-.47-.5-.77-.59-1.87-.59h-1.71c-.77,0-.86,0-.86.82v5h2.44c1.34,0,1.53-.35,1.87-1.94h.84v5.06h-.87c-.25-1.55-.59-1.94-1.84-1.94H405v3.56c0,2.09.14,2.25,2.19,2.39v.84h-7.3v-.84c1.73-.16,1.94-.3,1.94-2.39V77c0-2-.21-2.21-1.94-2.35v-.84h7.73c2,0,3.1,0,3.47-.05,0,.39.13,2.35.25,3.69Z"/><path class="cls-6" d="M430.45,77.73a6.93,6.93,0,0,0-1-2.23c-.41-.48-.59-.66-1.94-.66h-1.46V85.55c0,1.91.23,2,2.26,2.21v.84h-7.57v-.84c1.94-.16,2.14-.3,2.14-2.21V74.84h-1.39c-1.27,0-1.64.2-2.07.75a8.36,8.36,0,0,0-.93,2.16h-.87c.16-1.66.32-3.44.36-4.53h.69c.34.52.61.57,1.3.57h9.12a1.52,1.52,0,0,0,1.32-.57h.66c0,1,.11,3,.23,4.44Z"/><path class="cls-6" d="M449.17,74.63c-1.78.18-1.94.32-1.94,2.21v8.73c0,1.89.18,2,1.94,2.19v.84h-7.05v-.84c1.81-.23,1.94-.3,1.94-2.19V81.29h-6.15v4.28c0,1.89.2,2,1.91,2.19v.84h-7v-.84c1.69-.18,1.94-.3,1.94-2.19V76.84c0-1.89-.21-2.07-1.94-2.21v-.84h7v.84c-1.73.16-1.91.32-1.91,2.21V80.1h6.15V76.84c0-1.89-.23-2-1.94-2.21v-.84h7.05Z"/><path class="cls-6" d="M463.51,84.73c-.11.61-.75,3.24-1,3.87H450.72v-.82c2.08-.2,2.21-.32,2.21-2.23V76.84c0-1.94-.27-2.07-1.82-2.21v-.84h7.41c2.39,0,3.19,0,3.51-.05,0,.41.14,2.28.23,3.69l-.89.12a5.73,5.73,0,0,0-1-2.12c-.41-.46-.71-.59-1.87-.59H457c-.87,0-1,0-1,.82v4.76h2.23c1.28,0,1.51-.34,1.85-2h.89v5.08h-.89c-.36-1.68-.55-2-1.87-2h-2.21V85.5c0,1.58.05,2.06,1.46,2.08h1.62c1.27,0,1.62-.16,2.12-.78a10.23,10.23,0,0,0,1.39-2.28Z"/><path class="cls-6" d="M484.28,74.63c-1.5.16-2,.37-2.82,2.53-.71,1.76-3.06,7.41-4.75,11.7h-1.25c-.64-1.78-3.6-9.6-4.56-12-.71-1.71-1-2.07-2.48-2.21v-.84h6.95l0,.84c-1.67.23-1.67.39-1.3,1.34.7,1.92,2.41,6.62,3.19,8.62,1.37-3.26,2.6-6.36,3.12-7.84s.41-1.91-1.5-2.12v-.84h5.42Z"/><path class="cls-6" d="M491.49,88.6v-.84c1.43-.2,1.43-.45,1.12-1.44-.23-.68-.6-1.7-.94-2.62h-4.45c-.25.71-.56,1.58-.79,2.28-.48,1.44.07,1.62,1.87,1.78v.84h-5.63v-.84c1.43-.18,1.8-.39,2.57-2.3L490,73.67l1.1-.2c1.46,4,3,8,4.49,11.83.84,2.12,1.05,2.28,2.53,2.46v.84Zm-2-10.89c-.66,1.64-1.3,3.17-1.87,4.83h3.63Z"/><path class="cls-6" d="M510.43,84.59c-.18,1-.82,3.4-1,4H498.1v-.84c2-.14,2.19-.3,2.19-2.21V76.86c0-1.91-.23-2.09-1.94-2.23v-.84h7.12v.84c-1.78.16-2,.32-2,2.23v8.85c0,1.25,0,1.82,1.3,1.85,0,0,1.09,0,1.18,0a2.28,2.28,0,0,0,2.19-.89,9.45,9.45,0,0,0,1.44-2.37Z"/><path class="cls-6" d="M523.82,84.59c-.18,1-.82,3.4-1,4h-11.3v-.84c2-.14,2.18-.3,2.18-2.21V76.86c0-1.91-.22-2.09-1.93-2.23v-.84h7.11v.84c-1.78.16-2,.32-2,2.23v8.85c0,1.25,0,1.82,1.3,1.85.05,0,1.1,0,1.19,0a2.29,2.29,0,0,0,2.19-.89A9.76,9.76,0,0,0,523,84.32Z"/><path class="cls-6" d="M537.63,84.73c-.11.61-.75,3.24-1,3.87H524.85v-.82c2.07-.2,2.21-.32,2.21-2.23V76.84c0-1.94-.28-2.07-1.83-2.21v-.84h7.41c2.4,0,3.19,0,3.51-.05,0,.41.14,2.28.23,3.69l-.89.12a5.57,5.57,0,0,0-1-2.12c-.41-.46-.7-.59-1.87-.59h-1.48c-.86,0-1,0-1,.82v4.76h2.24c1.27,0,1.5-.34,1.84-2h.89v5.08h-.89c-.36-1.68-.54-2-1.86-2H530.2V85.5c0,1.58,0,2.06,1.46,2.08h1.62c1.28,0,1.62-.16,2.12-.78a9.88,9.88,0,0,0,1.39-2.28Z"/><path class="cls-6" d="M552.14,74.63a3,3,0,0,0-2.81,1.87c-.82,1.41-1.53,2.67-2.64,5a2.3,2.3,0,0,0-.25,1.2v2.83c0,2,.18,2,2,2.28v.84h-7.21v-.84c1.81-.23,2-.3,2-2.28V82.86a2,2,0,0,0-.26-1c-.66-1.34-1.5-2.87-2.87-5.27-.84-1.48-1.18-1.77-2.51-1.91v-.84h6.68v.84c-1.52.21-1.48.5-1.09,1.3.75,1.48,1.73,3.3,2.6,5,.68-1.28,1.78-3.47,2.42-4.86.43-.91.25-1.2-1.4-1.41v-.84h5.32Z"/><path class="cls-6" d="M87.94,306.56c-1.6.23-1.74.42-1.74,2.1v8.6c0,2.82-.27,4-1.53,5a5.18,5.18,0,0,1-2,.9l-.1-.25a2.87,2.87,0,0,0,2-2.79,30.92,30.92,0,0,0,.11-3.19v-8.31c0-1.71-.15-1.85-1.83-2.1v-.26h5.06Z"/><path class="cls-6" d="M88.84,320v-.25c1.31-.21,1.39-.32,1.39-1.83v-4.22c0-1.43-.08-1.53-1.2-1.74v-.21a11.41,11.41,0,0,0,2.61-.82c0,.42,0,1.66,0,2.6v4.37c0,1.56.13,1.64,1.39,1.85V320Zm2-11.76a.92.92,0,0,1-.88-.88.9.9,0,0,1,.9-.9.87.87,0,0,1,.88.9A.89.89,0,0,1,90.82,308.19Z"/><path class="cls-6" d="M99.34,320v-.25c1.3-.17,1.39-.32,1.39-1.95v-3.28c0-1.28-.4-2.52-1.89-2.52a3.48,3.48,0,0,0-2.27,1v4.89c0,1.53.15,1.64,1.35,1.85V320h-4.1v-.25c1.32-.19,1.39-.38,1.39-1.83v-4.24c0-1.3-.07-1.43-1.07-1.7v-.21a8,8,0,0,0,2.47-.88c0,.38-.06.94,0,1.7.4-.32.9-.67,1.43-1a2.92,2.92,0,0,1,1.57-.59c1.6,0,2.52,1.22,2.52,3.11v3.88c0,1.47.13,1.6,1.2,1.79V320Z"/><path class="cls-6" d="M109.53,313.34c-.38-1.47-1.18-2-2.14-2a1.29,1.29,0,0,0-1.39,1.43c0,1,.74,1.47,1.74,2,1.47.73,2.33,1.4,2.33,2.68A2.88,2.88,0,0,1,107,320.2a5.8,5.8,0,0,1-2-.4,22.25,22.25,0,0,1-.42-2.2l.25-.06a2.67,2.67,0,0,0,2.52,2.24,1.44,1.44,0,0,0,1.56-1.53c0-1-.61-1.53-1.64-2.1-1.22-.69-2.31-1.32-2.33-2.73a2.63,2.63,0,0,1,2.88-2.5,13.34,13.34,0,0,1,1.76.21c0,.4.21,1.79.25,2.12Z"/><path class="cls-6" d="M119.69,311.41c-1,.23-1.11.39-1.57,1.44-.61,1.41-1.16,2.94-2.67,6.74-1.26,3.22-1.74,4.52-2.06,5.57-.1.42-.29.59-.54.59a1,1,0,0,1-1-.84c0-.17.08-.32.5-.63a4.77,4.77,0,0,0,1.55-2.1c.45-1,.7-1.58.87-2a.67.67,0,0,0,0-.52c-.84-2.29-1.92-4.92-2.5-6.47-.53-1.32-.61-1.51-1.75-1.74v-.24h3.8v.24c-1,.27-1.07.39-.75,1.23l2,5.44c.63-1.68,1.64-4.43,2-5.44.25-.77.08-1-1.16-1.23v-.24h3.36Z"/><path class="cls-6" d="M124.14,310.92a4.27,4.27,0,0,1,4.24,4.47,4.46,4.46,0,0,1-4.26,4.81,4.35,4.35,0,0,1-4.3-4.47A4.57,4.57,0,0,1,124.14,310.92Zm-.25.44c-1.47,0-2.48,1.58-2.48,3.72,0,2.81,1.26,4.64,3,4.64,1.32,0,2.39-1,2.39-4C126.79,313.51,125.8,311.36,123.89,311.36Z"/><path class="cls-6" d="M90.08,333.12c-.38-1.47-1-2.67-2.92-2.67a2.22,2.22,0,0,0-2.28,2.42c0,1.61.9,2.26,2.54,3.23s3.44,2,3.44,4.26a4,4,0,0,1-4.31,3.91,8.68,8.68,0,0,1-3-.61c-.12-.57-.44-2.42-.48-2.82l.29-.06a3.7,3.7,0,0,0,3.47,3.05A2.54,2.54,0,0,0,89.39,341c0-1.62-1.09-2.5-2.56-3.4s-3.3-2-3.3-4.09,1.62-3.51,4-3.51a10.49,10.49,0,0,1,2.54.34c.09.73.19,1.72.34,2.7Z"/><path class="cls-6" d="M95.9,344a1.45,1.45,0,0,1-.65.21c-1.24,0-1.85-.84-1.85-2.39v-6.07H92l0-.08.26-.48H93.4v-2a15.49,15.49,0,0,0,1.26-1.2l.15,0c0,.38-.06,1.5-.06,3.18H97a.76.76,0,0,1-.12.56H94.75v5.46c0,1.72.6,2.06,1.3,2.06a2.48,2.48,0,0,0,1.19-.32l.09.28Z"/><path class="cls-6" d="M98.9,344.2a1,1,0,0,1-1-1,1,1,0,0,1,1-1,1,1,0,0,1,1,1A1,1,0,0,1,98.9,344.2Z"/><path class="cls-6" d="M190.69,513.92a6.67,6.67,0,0,1,6.61,6.9c0,4.39-3,7.29-6.77,7.29a6.71,6.71,0,0,1-6.63-6.9C183.9,517.43,186.49,513.92,190.69,513.92Zm-.39.46c-2.43,0-4.6,2.17-4.6,6.23s2.13,7,5.29,7c2.46,0,4.51-2.13,4.51-6.16C195.5,517,193.31,514.38,190.3,514.38Z"/><path class="cls-6" d="M209.3,527.8v-.25c1.34-.19,1.36-.34,1.36-2v-3.24c0-1.32-.34-2.45-1.8-2.45a3.21,3.21,0,0,0-2.22,1,4,4,0,0,1,.07.92v4c0,1.44.08,1.57,1.25,1.78v.25H204v-.25c1.21-.21,1.32-.36,1.32-1.78v-3.51c0-1.55-.42-2.45-1.82-2.45a3.28,3.28,0,0,0-2.13,1v4.87c0,1.46,0,1.63,1.33,1.84v.25h-4.07v-.25c1.32-.17,1.38-.36,1.38-1.82v-4.2c0-1.38-.08-1.47-1.07-1.72v-.21a7.94,7.94,0,0,0,2.47-.87c0,.75,0,1.33,0,1.65.39-.27.83-.63,1.36-1a2.94,2.94,0,0,1,1.63-.59,2.18,2.18,0,0,1,2.15,1.65,20.12,20.12,0,0,1,1.71-1.19,2.53,2.53,0,0,1,1.4-.46c1.47,0,2.35,1.17,2.35,3v3.81c0,1.63.1,1.69,1.21,1.9v.25Z"/><path class="cls-6" d="M218.71,518.81a4.26,4.26,0,0,1,4.22,4.45,4.46,4.46,0,0,1-4.24,4.79,4.34,4.34,0,0,1-4.29-4.45A4.56,4.56,0,0,1,218.71,518.81Zm-.25.44c-1.47,0-2.47,1.57-2.47,3.7,0,2.8,1.25,4.62,3,4.62,1.31,0,2.38-1,2.38-3.93C221.34,521.38,220.36,519.25,218.46,519.25Z"/><path class="cls-6" d="M227.74,527.84a1.48,1.48,0,0,1-.65.21c-1.23,0-1.84-.84-1.84-2.38v-6h-1.38l0-.09.25-.48h1.17v-2c.35-.32.9-.8,1.25-1.2l.15,0c0,.38-.06,1.49-.06,3.16h2.23a.74.74,0,0,1-.12.57h-2.11v5.43c0,1.71.6,2.05,1.29,2.05a2.61,2.61,0,0,0,1.19-.31l.09.27Z"/><path class="cls-6" d="M236.81,526a4.6,4.6,0,0,1-3.12,2c-2.46,0-3.88-2.07-3.88-4.35a5,5,0,0,1,1.25-3.45,4.22,4.22,0,0,1,2.91-1.44,2.86,2.86,0,0,1,2.88,2.78c0,.31,0,.5-.1.52a39.17,39.17,0,0,1-5.65.32c-.06,3.34,1.78,4.47,3.26,4.47a3.23,3.23,0,0,0,2.28-1.07Zm-3.43-6.67c-1,0-1.94.78-2.21,2.51a37.17,37.17,0,0,0,4-.06q.15,0,.15-.33A2,2,0,0,0,233.38,519.37Z"/><path class="cls-6" d="M243,521.21c-.38-1.46-1.18-2-2.14-2a1.29,1.29,0,0,0-1.38,1.42c0,1,.74,1.46,1.74,2,1.46.73,2.32,1.4,2.32,2.67a2.87,2.87,0,0,1-3.05,2.74,5.74,5.74,0,0,1-2-.4,22,22,0,0,1-.42-2.19l.25-.07a2.65,2.65,0,0,0,2.51,2.24,1.43,1.43,0,0,0,1.55-1.52c0-1-.61-1.53-1.63-2.09-1.22-.69-2.3-1.32-2.32-2.72a2.61,2.61,0,0,1,2.86-2.49A13.11,13.11,0,0,1,243,519c0,.4.21,1.78.25,2.11Z"/><path class="cls-6" d="M250.88,528.05a1.41,1.41,0,0,1-.94-.42,1.57,1.57,0,0,1-.46-.94,7.34,7.34,0,0,1-2.32,1.36,2.32,2.32,0,0,1-2.3-2.3,1.84,1.84,0,0,1,1.48-1.84,20.32,20.32,0,0,0,3.16-1.23v-.63c0-1.5-.73-2.49-1.86-2.49a1.2,1.2,0,0,0-.92.38,3.89,3.89,0,0,0-.57,1.32.41.41,0,0,1-.39.33.8.8,0,0,1-.74-.73c0-.17.15-.34.51-.61a9.83,9.83,0,0,1,2.86-1.44,2.62,2.62,0,0,1,1.53.5,3,3,0,0,1,.89,2.55v3.74c0,1,.34,1.34.74,1.34a1,1,0,0,0,.65-.21l.12.28Zm-1.38-5c-.36.23-1.44.65-2,.92s-1.19.71-1.19,1.47a1.52,1.52,0,0,0,1.53,1.57,2.24,2.24,0,0,0,1.63-.72C249.46,525.29,249.5,524.14,249.5,523.05Z"/><path class="cls-6" d="M258.51,527.8v-.25c1.29-.17,1.38-.32,1.38-1.95v-3.26c0-1.27-.4-2.51-1.88-2.51a3.49,3.49,0,0,0-2.26,1v4.87c0,1.52.14,1.63,1.34,1.84v.25H253v-.25c1.32-.19,1.38-.38,1.38-1.82v-4.22c0-1.3-.06-1.42-1.07-1.7v-.21a7.93,7.93,0,0,0,2.47-.87c0,.37-.06.94,0,1.69.4-.31.9-.67,1.42-1a2.89,2.89,0,0,1,1.57-.59c1.59,0,2.51,1.21,2.51,3.09v3.87c0,1.46.12,1.59,1.19,1.78v.25Z"/><path class="cls-6" d="M273,527.3a12.81,12.81,0,0,0-2.87.75c0-.46,0-1,0-1.42-.54.35-1.21.77-1.77,1.06a2.63,2.63,0,0,1-1.13.36,4.06,4.06,0,0,1-3.58-4.33,5,5,0,0,1,5-4.91,4.54,4.54,0,0,1,1.44.19v-3.64c0-1.36-.1-1.59-1.56-1.76v-.22a11.45,11.45,0,0,0,3-.67c-.05.43-.09,1.79-.09,2.61V525.5c0,1,.15,1.34.88,1.46l.59.11Zm-2.83-6.86a2.84,2.84,0,0,0-2.38-1c-1.17,0-2.59.69-2.59,3.61,0,2.58,1.5,4,2.92,4a3,3,0,0,0,2.05-.78Z"/><path class="cls-6" d="M278.2,518.81a4.25,4.25,0,0,1,4.22,4.45,4.46,4.46,0,0,1-4.24,4.79,4.35,4.35,0,0,1-4.29-4.45A4.57,4.57,0,0,1,278.2,518.81Zm-.25.44c-1.46,0-2.47,1.57-2.47,3.7,0,2.8,1.26,4.62,3,4.62,1.32,0,2.38-1,2.38-3.93C280.83,521.38,279.85,519.25,278,519.25Z"/><path class="cls-6" d="M301.57,514.46c-1.69.21-1.84.46-1.84,2.3v8.53c0,1.92.19,2,1.84,2.26v.25h-5.14v-.25c1.69-.23,1.82-.5,1.82-2.26v-4.58h-7.38v4.58c0,1.8.19,2,1.84,2.26v.25h-5.14v-.25c1.67-.21,1.81-.46,1.81-2.26v-8.53c0-2-.12-2-1.81-2.3v-.25h5.14v.25c-1.7.23-1.84.4-1.84,2.3v3.37h7.38v-3.37c0-1.88-.09-2.11-1.82-2.3v-.25h5.14Z"/><path class="cls-6" d="M302.78,527.8v-.25c1.3-.21,1.38-.32,1.38-1.82v-4.2c0-1.42-.08-1.53-1.19-1.74v-.21a10.62,10.62,0,0,0,2.59-.81c0,.42,0,1.65,0,2.59v4.35c0,1.55.13,1.63,1.38,1.84v.25Zm2-11.71a.91.91,0,0,1-.88-.88.89.89,0,0,1,.9-.89.86.86,0,0,1,.88.89A.89.89,0,0,1,304.75,516.09Z"/><path class="cls-6" d="M307.55,527.8v-.25c1.21-.19,1.38-.29,1.38-1.84V515.65c0-1.67-.1-1.79-1.34-2v-.25a10.08,10.08,0,0,0,2.74-.71c0,.54-.06,1.5-.06,2.9v10.1c0,1.5.08,1.63,1.34,1.84v.25Z"/><path class="cls-6" d="M312.32,527.8v-.25c1.21-.19,1.38-.29,1.38-1.84V515.65c0-1.67-.11-1.79-1.34-2v-.25a10.18,10.18,0,0,0,2.74-.71c0,.54-.07,1.5-.07,2.9v10.1c0,1.5.09,1.63,1.34,1.84v.25Z"/><path class="cls-6" d="M322.37,521.21c-.37-1.46-1.17-2-2.13-2a1.28,1.28,0,0,0-1.38,1.42c0,1,.73,1.46,1.73,2,1.47.73,2.33,1.4,2.33,2.67a2.88,2.88,0,0,1-3.06,2.74,5.67,5.67,0,0,1-2-.4,19.47,19.47,0,0,1-.42-2.19l.25-.07a2.65,2.65,0,0,0,2.51,2.24,1.42,1.42,0,0,0,1.54-1.52c0-1-.6-1.53-1.63-2.09-1.21-.69-2.3-1.32-2.32-2.72a2.62,2.62,0,0,1,2.87-2.49,12.91,12.91,0,0,1,1.75.21c0,.4.21,1.78.25,2.11Z"/><path class="cls-6" d="M662,493.73c0,4.36-3,8.37-7.41,8.37-3.32,0-5.44-2.29-5.44-5.75,0-4.33,3.08-8.5,7.43-8.5C659.93,487.85,662,490.16,662,493.73Zm-10.88,2.75c0,2.89,1.07,4.87,3.63,4.87,3.51,0,5.27-4.37,5.27-7.79,0-2.94-.88-5-3.59-5C653.19,488.6,651.11,492.76,651.11,496.48Z"/><path class="cls-6" d="M681.26,488.73c-1.8.17-1.91.23-2.18,2-.44,3-.74,5.48-1.09,8.23-.27,2-.09,2.12,1.68,2.27l-.15.59H674l.15-.59c1.68-.17,1.8-.23,2.12-2.27.44-3,.84-5.83,1.3-8.82h-.06c-2.31,3.87-5.82,9.73-6.87,11.68h-.48c-.34-2.16-1.66-7.45-2.48-11.47h0l-1.39,5.76c-.5,2.12-.73,3.08-.84,3.8-.14.92.07,1.17,1.68,1.32l-.14.59H662l.15-.59c1.43-.1,1.78-.4,2.08-1.28.37-1.09.82-2.54,1.38-4.77l1-4c.53-2.06.5-2.14-1.53-2.39l.17-.59h3.52c.7,3.23,1.81,7.14,2.61,10.67l6.51-10.67h3.48Z"/><path class="cls-6" d="M695.06,493.73c0,4.36-3,8.37-7.41,8.37-3.32,0-5.44-2.29-5.44-5.75,0-4.33,3.09-8.5,7.43-8.5C693,487.85,695.06,490.16,695.06,493.73Zm-10.88,2.75c0,2.89,1.08,4.87,3.64,4.87,3.5,0,5.27-4.37,5.27-7.79,0-2.94-.88-5-3.59-5C686.26,488.6,684.18,492.76,684.18,496.48Z"/><path class="cls-6" d="M709.07,487.68c-.23,1-.48,2.5-.67,3.63l-.65,0a5.09,5.09,0,0,0-.09-1.15c-.1-.93-.36-1.26-2.27-1.26h-1.28l-2,10.31c-.32,1.7-.15,1.8,1.76,1.95l-.12.59H698l.15-.59c1.78-.15,1.93-.27,2.25-1.95l2-10.31h-1.26c-1.68,0-2,.27-2.41.82a8.23,8.23,0,0,0-1,1.61l-.67-.06a35.74,35.74,0,0,0,.86-3.63h.48c.21.48.44.46,1,.46h8.06a1.19,1.19,0,0,0,1.1-.46Z"/><path class="cls-6" d="M717.13,488.14c1,0,2,0,2.73,0-.12.5-.35,1.95-.54,3.19l-.65,0c-.09-2.18-.45-2.39-1.81-2.39h-2.08c-.69,0-.88,0-1,.84l-.88,4.51H715c1.73,0,1.81-.25,2.4-1.72h.63l-.86,4.35h-.63c0-1.62.06-1.83-1.73-1.83h-2.12l-.73,3.74c-.32,1.49-.27,2.16,1.22,2.16h1.55a3,3,0,0,0,2.37-.67,7.32,7.32,0,0,0,1.39-1.93l.61.21c-.21.58-.93,2.54-1.2,3.19H707.71l.14-.59c1.85-.19,2-.25,2.33-1.93l1.66-8.59c.32-1.62.21-1.8-1.61-1.95l.12-.59Z"/><path class="cls-6" d="M721.23,498.05c.21,1.7.86,3.32,3.15,3.32a2.42,2.42,0,0,0,2.6-2.69c0-1.22-.59-2-1.85-3l-.73-.54c-1-.8-2.27-1.79-2.27-3.62s1.54-3.71,4.29-3.71a11.38,11.38,0,0,1,3.14.54c-.16.84-.27,2.08-.37,3l-.63,0c0-1.64-.49-2.9-2.4-2.9a2.28,2.28,0,0,0-2.41,2.52c0,1.24.71,1.93,1.85,2.75l.75.57c1.45,1.07,2.37,2.16,2.37,3.71,0,2.25-2,4-4.59,4a7.23,7.23,0,0,1-3.64-1c0-.53.11-2,.13-3Z"/><path class="cls-6" d="M741.72,501.79H736.6l.1-.59c1.52-.17,1.68-.36,1.58-1.26s-.27-1.91-.46-3.13h-4.41c-.36.67-1.07,1.89-1.56,2.84-.65,1.24-.33,1.38,1.29,1.55l-.13.59H728.2l.15-.59c1.34-.17,1.62-.29,2.64-2L737.44,488l.69-.1c.93,6.17,1.39,9,1.81,11.52.23,1.47.4,1.66,1.93,1.81Zm-4.83-11.28h0c-1.07,2-2.14,3.87-3,5.46h3.84Z"/><path class="cls-6" d="M749.47,488.14c4,0,6.57,2,6.57,5.78a7.29,7.29,0,0,1-3.36,6.36,9.52,9.52,0,0,1-5.81,1.51h-5.25l.15-.59c1.7-.15,1.89-.34,2.18-1.95l1.66-8.55c.32-1.66.25-1.82-1.62-2l.15-.59Zm-3.73,10.92c-.34,1.76.75,1.95,2,1.95,4.3,0,6.38-3.38,6.38-7.2,0-3.25-1.7-4.93-4.79-4.93-1.23,0-1.63.1-1.84,1.23Z"/><path class="cls-6" d="M770.7,493.73c0,4.36-3,8.37-7.41,8.37-3.32,0-5.44-2.29-5.44-5.75,0-4.33,3.09-8.5,7.44-8.5C768.65,487.85,770.7,490.16,770.7,493.73Zm-10.87,2.75c0,2.89,1.07,4.87,3.63,4.87,3.51,0,5.27-4.37,5.27-7.79,0-2.94-.88-5-3.59-5C761.91,488.6,759.83,492.76,759.83,496.48Z"/><path class="cls-6" d="M649.26,522.05c.21,1.7.86,3.32,3.15,3.32a2.43,2.43,0,0,0,2.61-2.69c0-1.22-.59-2-1.85-3l-.74-.54c-1-.8-2.26-1.79-2.26-3.62s1.53-3.71,4.28-3.71a11.47,11.47,0,0,1,3.15.54c-.17.84-.27,2.08-.38,3l-.63,0c0-1.64-.48-2.9-2.39-2.9a2.29,2.29,0,0,0-2.42,2.52c0,1.24.72,1.93,1.85,2.75l.76.57c1.45,1.07,2.37,2.16,2.37,3.71,0,2.25-2,4-4.6,4a7.15,7.15,0,0,1-3.63-1c0-.53.1-2,.12-3Z"/><path class="cls-6" d="M664.15,517.31c-.42,0-1.49.12-2.12.12-.94,4.37-1.24,5.71-1.34,6.34s0,.84.21.84c.42,0,1.11-.54,1.89-1.32l.27.52c-.67,1-2.31,2.23-3.21,2.23-.74,0-1.09-.57-.55-3l1.22-5.57h-1.68v-.19l.61-.67h1.26l.48-2.25a10.93,10.93,0,0,0,1.66-1.15l.19.1c-.25.84-.59,2.21-.82,3.3h2.33Z"/><path class="cls-6" d="M673.83,523.9a5,5,0,0,1-2.92,2.14c-.58,0-.84-.48-.46-2.39l.3-1.45a11.84,11.84,0,0,1-2.52,2.83,3.85,3.85,0,0,1-2.17,1c-.73,0-1.34-.9-1.34-2.6a7.72,7.72,0,0,1,2.33-5.46,6.14,6.14,0,0,1,4-1.66,13.25,13.25,0,0,1,2.44.36c-.38,1.32-1.12,4.55-1.52,6.92-.1.59-.06.82.11.82s.69-.27,1.45-1Zm-3.8-1.74a7.49,7.49,0,0,0,1.22-2.52,18.1,18.1,0,0,0,.46-2.06,4.15,4.15,0,0,0-1.6-.34c-2.47,0-3.63,3.19-3.63,5.92,0,.84.23,1.39.65,1.39C667.78,524.55,668.71,523.9,670,522.16Z"/><path class="cls-6" d="M681,517.31c-.42,0-1.49.12-2.12.12-.94,4.37-1.24,5.71-1.34,6.34s0,.84.21.84c.42,0,1.11-.54,1.89-1.32l.27.52c-.67,1-2.31,2.23-3.21,2.23-.74,0-1.09-.57-.55-3l1.22-5.57h-1.68v-.19l.61-.67h1.26l.48-2.25a10.93,10.93,0,0,0,1.66-1.15l.19.1c-.25.84-.59,2.21-.82,3.3h2.33Z"/><path class="cls-6" d="M685.61,524a4.75,4.75,0,0,1-3,2.08c-.55,0-.78-.55-.38-2.23.34-1.38.93-3.63,1.33-5.33.08-.4.06-.59-.07-.59a3.56,3.56,0,0,0-1.38,1l-.28-.55a6.09,6.09,0,0,1,3.09-2c.52,0,.55.71.17,2.27s-.91,3.63-1.28,5.12c-.15.57-.15.8,0,.8a3.18,3.18,0,0,0,1.51-1.07Zm.59-11a1.16,1.16,0,0,1-1.11,1.22.9.9,0,0,1-.93-.95,1.23,1.23,0,0,1,1.18-1.24A.87.87,0,0,1,686.2,513Z"/><path class="cls-6" d="M695.63,519.6a6.74,6.74,0,0,1-2.94,5.6,5.07,5.07,0,0,1-2.58.84c-2,0-2.82-1.6-2.82-3.27a6.4,6.4,0,0,1,3.38-5.88,5.36,5.36,0,0,1,2.17-.57C694.6,516.32,695.63,517.47,695.63,519.6Zm-6.55,2.93c0,1.58.59,2.63,1.74,2.63,2,0,3-3.21,3-5.48,0-1.74-.76-2.48-1.77-2.48C690,517.2,689.08,520.37,689.08,522.53Z"/><path class="cls-6" d="M706.82,523.9a4.86,4.86,0,0,1-3,2.14c-.57,0-.86-.5-.46-2.23.38-1.49.73-3,1-4.3s.25-1.83-.28-1.83c-.69,0-2.31,1.18-3.73,3.36a5.46,5.46,0,0,0-.72,1.77c-.21.82-.48,2-.65,2.81a11.23,11.23,0,0,0-1.49.42l-.15-.15c.59-2.29,1.2-4.85,1.73-7.18.14-.65.06-.84-.11-.84s-.75.47-1.28,1l-.29-.55a4.56,4.56,0,0,1,2.75-2c.61,0,.77.73.33,2.56l-.29,1.24c1.87-2.44,3.76-3.8,5-3.8.69,0,1.34.48.67,3.3-.27,1.15-.67,2.77-1,4.09-.12.57-.12.82,0,.82a3.57,3.57,0,0,0,1.56-1.14Z"/><path class="cls-6" d="M724.69,525.79h-5.12l.1-.59c1.51-.17,1.68-.36,1.58-1.26s-.27-1.91-.46-3.13h-4.41c-.36.67-1.07,1.89-1.56,2.84-.65,1.24-.33,1.38,1.28,1.55l-.12.59h-4.81l.15-.59c1.34-.17,1.61-.29,2.64-2L720.41,512l.69-.1c.92,6.17,1.39,9,1.81,11.52.23,1.47.4,1.66,1.93,1.81Zm-4.83-11.28h0c-1.07,2-2.14,3.87-3,5.46h3.84Z"/><path class="cls-6" d="M727.68,513.59a4.21,4.21,0,0,1,2.81-1.13,3.14,3.14,0,0,1,3.3,3.31c0,2.12-1.43,3.61-3.85,5.71l-3.23,2.84h3.8c1.16,0,1.47-.13,2.56-1.7l.53.25c-.44.9-1,2.06-1.37,2.92h-7.85l0-.44c4.75-4.16,7.56-6.53,7.56-9.28a2,2,0,0,0-2.21-2.25,4,4,0,0,0-3,1.89l-.46-.44Z"/><path class="cls-6" d="M25.05,469.56c-1.81.16-1.91.23-2.18,2-.45,3-.74,5.48-1.1,8.23-.27,2-.08,2.12,1.68,2.27l-.14.58h-5.5L18,482c1.68-.17,1.81-.23,2.12-2.27.44-3.05.84-5.84,1.3-8.82h-.06c-2.31,3.86-5.81,9.72-6.86,11.67H14c-.33-2.16-1.66-7.45-2.47-11.46h-.05l-1.38,5.75c-.51,2.12-.74,3.09-.84,3.8-.15.93.06,1.18,1.68,1.33l-.15.58H5.82L6,482c1.43-.11,1.79-.4,2.08-1.28.38-1.1.82-2.54,1.39-4.77l1-4c.52-2.06.5-2.14-1.54-2.39l.17-.59H12.6c.69,3.23,1.8,7.14,2.6,10.66L21.71,469H25.2Z"/><path class="cls-6" d="M34,469c1,0,2,0,2.73,0-.13.5-.36,1.95-.55,3.19l-.65,0c-.08-2.19-.44-2.39-1.81-2.39H31.65c-.7,0-.89,0-1,.83l-.89,4.52H31.9c1.72,0,1.8-.25,2.39-1.72h.63l-.86,4.34h-.63c0-1.61.06-1.82-1.72-1.82H29.59l-.74,3.73c-.31,1.49-.27,2.17,1.22,2.17h1.55a3,3,0,0,0,2.38-.68,7.36,7.36,0,0,0,1.38-1.93l.61.21c-.21.59-.92,2.54-1.2,3.19H24.57l.15-.58c1.84-.19,2-.26,2.33-1.93l1.66-8.59c.31-1.62.21-1.81-1.62-1.95l.13-.59Z"/><path class="cls-6" d="M44.64,469.56c-1.76.14-1.93.27-2.22,1.8l-1.68,8.8c-.32,1.59-.13,1.74,1.64,1.87l-.11.58h-5.6l.12-.58c1.7-.15,1.89-.3,2.21-1.87l1.7-8.8c.29-1.55.12-1.66-1.64-1.8l.12-.59h5.59Z"/><path class="cls-6" d="M51.76,469.56c-1.68.18-1.82.25-2.14,1.91L48,479.86c-.54,2.9-1.38,4.41-3.15,5.29a5.54,5.54,0,0,1-1.88.53L42.8,485c2.18-.59,2.85-1.87,3.57-5.56l1.53-8c.31-1.68.19-1.73-1.68-1.91l.15-.59h5.54Z"/><path class="cls-6" d="M58.63,469.56c-1.76.14-1.93.27-2.23,1.8l-1.68,8.8c-.31,1.59-.12,1.74,1.64,1.87l-.1.58H50.65l.13-.58c1.7-.15,1.89-.3,2.2-1.87l1.7-8.8c.3-1.55.13-1.66-1.64-1.8l.13-.59h5.59Z"/><path class="cls-6" d="M14.17,493.56c-1.68.18-1.82.25-2.14,1.91l-1.62,8.39c-.54,2.9-1.38,4.41-3.14,5.29a5.58,5.58,0,0,1-1.89.53L5.21,509c2.18-.59,2.85-1.87,3.57-5.56l1.53-8c.31-1.68.19-1.73-1.68-1.91l.15-.59h5.54Z"/><path class="cls-6" d="M21,493.56c-1.76.14-1.93.27-2.23,1.8l-1.68,8.8c-.31,1.59-.12,1.74,1.64,1.87l-.1.58H13.06l.13-.58c1.7-.15,1.89-.3,2.2-1.87l1.7-8.8c.3-1.55.13-1.66-1.64-1.8l.13-.59h5.59Z"/><path class="cls-6" d="M36.54,493.56c-1.39.1-1.73.44-2,1.32-.17.63-.42,1.61-.77,3.52l-1.6,8.38h-.73L25.11,495.7l-1.05,5.56c-.33,1.76-.5,2.81-.56,3.51-.07,1,.38,1.13,1.87,1.26l-.13.58h-5l.13-.58c1.15-.09,1.7-.34,2-1.28a34.64,34.64,0,0,0,.82-3.53l1.14-5.84a1.36,1.36,0,0,0-.28-1.2,2.41,2.41,0,0,0-1.76-.62l.15-.59h3.06l6.36,10.83,1.05-5.46c.36-1.91.53-2.9.57-3.48.08-.95-.25-1.22-1.83-1.3l.15-.59h4.89Z"/><path class="cls-6" d="M48.09,496.64c.14-2.5-.91-3.23-3.11-3.23-3.93,0-6.32,3.52-6.32,7.3,0,3.41,1.66,5.46,4.56,5.46,1.13,0,2.14-.4,2.39-1.49l.38-1.91c.31-1.53.12-1.61-1.87-1.8l.12-.59h5.34l-.15.57c-1.26.21-1.41.25-1.72,1.82l-.32,1.72a5.78,5.78,0,0,0-.14,1.73,18.65,18.65,0,0,1-4.33.71c-3.67,0-6.28-2.25-6.28-6.09,0-4.72,3.59-8.17,8.82-8.17a17.93,17.93,0,0,1,3.84.53c-.14.65-.37,1.93-.56,3.4Z"/><path class="cls-6" d="M65.79,493.56c-1.43.08-1.74.52-1.93,1.3s-.53,2.07-1.28,6-2.23,6.11-6,6.09c-2.85,0-5.12-1.43-4.26-5.86l1.11-5.67c.3-1.59.11-1.68-1.61-1.84L52,493H57.5l-.11.59c-1.68.16-1.87.21-2.18,1.84L54.11,501c-.69,3.51.76,4.81,3,4.81,2.56,0,3.82-1.3,4.53-4.94.78-4,1-5.33,1.07-6.13s-.31-1.09-1.89-1.19L61,493h5Z"/><path class="cls-6" d="M83.3,493.56c-1.8.16-1.91.23-2.18,2-.44,3-.74,5.48-1.09,8.23-.28,2-.09,2.12,1.68,2.27l-.15.58h-5.5l.15-.58c1.67-.17,1.8-.23,2.12-2.27.44-3.05.84-5.84,1.3-8.82h-.07c-2.3,3.86-5.81,9.72-6.86,11.67h-.48c-.34-2.16-1.66-7.45-2.48-11.46h0l-1.39,5.75c-.5,2.12-.73,3.09-.84,3.8-.15.93.06,1.18,1.68,1.33l-.15.58H64.07l.15-.58c1.42-.11,1.78-.4,2.08-1.28.37-1.1.81-2.54,1.38-4.77l1-4c.52-2.06.5-2.14-1.53-2.39l.16-.59h3.53c.69,3.23,1.81,7.14,2.6,10.66L80,493h3.49Z"/><path class="cls-6" d="M95.06,506.61H89.94l.11-.58c1.51-.17,1.67-.36,1.57-1.26s-.27-1.91-.46-3.13H86.75c-.36.67-1.07,1.89-1.55,2.83-.66,1.24-.34,1.39,1.28,1.56l-.13.58H81.54l.15-.58c1.34-.17,1.62-.3,2.64-2l6.45-11.21.69-.11c.93,6.18,1.39,9,1.81,11.53.23,1.47.4,1.66,1.93,1.81Zm-4.83-11.27h0c-1.07,2-2.14,3.86-3,5.46H91Z"/><path class="cls-6" d="M104.24,493c1,0,2,0,2.73,0-.13.5-.36,1.95-.55,3.19l-.65,0c-.08-2.19-.44-2.39-1.8-2.39h-2.08c-.69,0-.88,0-1,.83l-.88,4.52h2.16c1.72,0,1.81-.25,2.39-1.72h.63l-.86,4.34h-.63c0-1.61.07-1.82-1.72-1.82H99.83l-.73,3.73c-.32,1.49-.28,2.17,1.21,2.17h1.56a2.94,2.94,0,0,0,2.37-.68,7.38,7.38,0,0,0,1.39-1.93l.61.21c-.21.59-.93,2.54-1.2,3.19H94.81L95,506c1.85-.19,2-.26,2.33-1.93L99,495.51c.31-1.62.21-1.81-1.62-1.95l.13-.59Z"/><path class="cls-6" d="M7.73,526.88c.21,1.7.86,3.31,3.15,3.31a2.41,2.41,0,0,0,2.6-2.68c0-1.22-.59-2-1.85-3L10.9,524c-1.05-.8-2.27-1.78-2.27-3.61s1.53-3.72,4.28-3.72a10.94,10.94,0,0,1,3.15.55c-.17.84-.27,2.08-.38,3l-.63,0c0-1.63-.48-2.89-2.39-2.89a2.28,2.28,0,0,0-2.41,2.52c0,1.23.71,1.93,1.84,2.75l.76.56c1.45,1.07,2.37,2.17,2.37,3.72,0,2.25-2,4-4.6,4a7.1,7.1,0,0,1-3.63-1c0-.52.11-2,.13-3Z"/><path class="cls-6" d="M22.62,522.13c-.42,0-1.5.13-2.13.13-.94,4.37-1.23,5.71-1.34,6.34s0,.84.21.84c.42,0,1.11-.55,1.89-1.32l.27.52c-.67,1-2.31,2.23-3.21,2.23-.73,0-1.09-.57-.54-3L19,522.26H17.3v-.19l.61-.67h1.26l.48-2.25A12.6,12.6,0,0,0,21.31,518l.19.1c-.25.84-.59,2.21-.82,3.3H23Z"/><path class="cls-6" d="M32.3,528.72a5,5,0,0,1-2.92,2.15c-.59,0-.84-.49-.46-2.4l.29-1.45a11.71,11.71,0,0,1-2.52,2.84,3.89,3.89,0,0,1-2.16,1c-.74,0-1.35-.91-1.35-2.61a7.8,7.8,0,0,1,2.33-5.46,6.24,6.24,0,0,1,4-1.66,14.2,14.2,0,0,1,2.44.36c-.38,1.32-1.11,4.56-1.51,6.93-.11.59-.07.82.1.82s.7-.27,1.45-1ZM28.5,527a7.48,7.48,0,0,0,1.21-2.52,20.43,20.43,0,0,0,.47-2.06,4.42,4.42,0,0,0-1.6-.33c-2.48,0-3.63,3.19-3.63,5.92,0,.84.23,1.39.65,1.39C26.25,529.38,27.17,528.72,28.5,527Z"/><path class="cls-6" d="M39.46,522.13c-.42,0-1.49.13-2.12.13-1,4.37-1.24,5.71-1.35,6.34s0,.84.21.84c.42,0,1.12-.55,1.89-1.32l.28.52c-.68,1-2.31,2.23-3.22,2.23-.73,0-1.09-.57-.54-3l1.21-5.56H34.15v-.19l.6-.67H36l.49-2.25A14.08,14.08,0,0,0,38.16,518l.18.1c-.25.84-.58,2.21-.81,3.3h2.33Z"/><path class="cls-6" d="M44.08,528.79a4.81,4.81,0,0,1-3,2.08c-.54,0-.77-.55-.37-2.23.33-1.38.92-3.63,1.32-5.33.08-.4.06-.59-.06-.59a3.7,3.7,0,0,0-1.39.94l-.27-.54a6.07,6.07,0,0,1,3.08-2c.53,0,.55.72.17,2.27s-.9,3.64-1.28,5.13c-.15.56-.15.79,0,.79a3.05,3.05,0,0,0,1.51-1.07Zm.59-11A1.16,1.16,0,0,1,43.55,519a.89.89,0,0,1-.92-.94,1.22,1.22,0,0,1,1.17-1.24A.87.87,0,0,1,44.67,517.79Z"/><path class="cls-6" d="M54.09,524.42A6.75,6.75,0,0,1,51.15,530a5,5,0,0,1-2.58.84c-2,0-2.81-1.6-2.81-3.28a6.38,6.38,0,0,1,3.38-5.88,5.43,5.43,0,0,1,2.16-.57C53.06,521.14,54.09,522.3,54.09,524.42Zm-6.55,2.94c0,1.57.59,2.62,1.75,2.62,2,0,3-3.21,3-5.48,0-1.74-.76-2.47-1.76-2.47C48.47,522,47.54,525.2,47.54,527.36Z"/><path class="cls-6" d="M65.29,528.72a4.92,4.92,0,0,1-3,2.15c-.56,0-.86-.51-.46-2.23.38-1.49.74-3,1-4.3s.25-1.83-.27-1.83c-.69,0-2.31,1.18-3.74,3.36a5.39,5.39,0,0,0-.71,1.76c-.21.82-.49,2-.65,2.82a9.26,9.26,0,0,0-1.49.42l-.15-.15c.59-2.29,1.2-4.85,1.72-7.18.15-.65.06-.84-.1-.84s-.76.46-1.29,1l-.29-.54a4.6,4.6,0,0,1,2.75-2c.61,0,.78.74.34,2.57l-.3,1.24c1.87-2.44,3.76-3.81,5-3.81.69,0,1.34.49.67,3.3-.27,1.16-.67,2.77-1,4.1-.13.56-.13.81,0,.81A3.45,3.45,0,0,0,65,528.22Z"/><path class="cls-6" d="M80.15,519.05h-4.8l-1.22,3.86a9.12,9.12,0,0,1,2.22-.48,3.3,3.3,0,0,1,3.59,3.31,5.06,5.06,0,0,1-2.64,4.2,6.43,6.43,0,0,1-3.24.93c-1.61,0-2.62-.86-2.62-1.47a1,1,0,0,1,.74-.95c.18,0,.37.11.75.46a3.1,3.1,0,0,0,2.18,1c1.56,0,3.07-1.11,3.07-3.48a2.64,2.64,0,0,0-3-2.88,6.66,6.66,0,0,0-2,.36l-.14-.17,1.89-6.2h5.79Z"/><path class="cls-6" d="M252,114.81v-.28c1.26-.22,1.6-.41,1.33-1.23-.3-1-.87-2.64-1.56-4.54h-4.58c-.5,1.46-.94,2.63-1.28,3.72-.5,1.55-.16,1.71,1.58,2v.28H242.7v-.28c1.28-.22,1.66-.38,2.51-2.53L250,99.71l.32,0c1.42,4.15,2.9,8.33,4.43,12.57.7,2,1,2,2.42,2.3v.28Zm-2.46-12.53c-.73,1.94-1.42,3.93-2.12,5.82h4.15Z"/><path class="cls-6" d="M261.77,114.81h-4.66v-.28c1.33-.2,1.42-.32,1.42-2V108c0-1.46,0-1.59-1.16-1.87v-.22a10,10,0,0,0,2.71-1c0,.41,0,1.62-.07,2.46.55-1,1.71-2.37,2.76-2.37a1,1,0,0,1,1.12.89,1.36,1.36,0,0,1-.57,1,.38.38,0,0,1-.52,0,1.47,1.47,0,0,0-1-.57c-.46,0-1.17.5-1.76,1.64v4.54c0,1.62.12,1.73,1.76,2Z"/><path class="cls-6" d="M268.43,114.85a1.67,1.67,0,0,1-.71.23c-1.34,0-2-.91-2-2.6v-6.59h-1.5l0-.09.28-.53h1.27V103.1a16.39,16.39,0,0,0,1.37-1.3l.16,0c0,.41-.07,1.62-.07,3.44h2.44a.82.82,0,0,1-.13.62h-2.31v5.93c0,1.87.67,2.23,1.42,2.23a2.8,2.8,0,0,0,1.3-.34l.09.3Z"/><path class="cls-6" d="M270.53,114.81v-.28c1.41-.22,1.5-.34,1.5-2V108c0-1.55-.09-1.66-1.3-1.89v-.23a11.87,11.87,0,0,0,2.83-.89c0,.46-.05,1.8-.05,2.83v4.75c0,1.68.14,1.78,1.51,2v.28ZM272.67,102a1,1,0,0,1-1-1,1,1,0,0,1,1-1,.94.94,0,0,1,1,1A1,1,0,0,1,272.67,102Z"/><path class="cls-6" d="M281.5,107.62c-.41-1.6-1.28-2.17-2.33-2.17a1.4,1.4,0,0,0-1.5,1.56c0,1.11.8,1.59,1.89,2.16,1.6.8,2.53,1.53,2.53,2.92a3.13,3.13,0,0,1-3.33,3,6.37,6.37,0,0,1-2.21-.43,22.89,22.89,0,0,1-.46-2.4l.28-.07a2.88,2.88,0,0,0,2.73,2.44,1.56,1.56,0,0,0,1.69-1.66c0-1.1-.66-1.67-1.78-2.28-1.32-.75-2.51-1.44-2.53-3a2.85,2.85,0,0,1,3.13-2.71,12.9,12.9,0,0,1,1.91.23c0,.43.23,1.94.28,2.3Z"/><path class="cls-6" d="M290.12,115.08a1.55,1.55,0,0,1-1-.46,1.74,1.74,0,0,1-.5-1,7.91,7.91,0,0,1-2.53,1.48,2.53,2.53,0,0,1-2.51-2.51,2,2,0,0,1,1.62-2,21.52,21.52,0,0,0,3.45-1.34v-.69c0-1.64-.8-2.71-2-2.71a1.31,1.31,0,0,0-1,.41,4.23,4.23,0,0,0-.61,1.44.46.46,0,0,1-.44.36.87.87,0,0,1-.8-.8c0-.18.16-.36.55-.66a10.8,10.8,0,0,1,3.13-1.57,2.74,2.74,0,0,1,1.66.55,3.26,3.26,0,0,1,1,2.78v4.08c0,1.1.37,1.46.8,1.46a1.06,1.06,0,0,0,.71-.23l.13.3Zm-1.5-5.45c-.39.25-1.58.71-2.19,1s-1.3.78-1.3,1.6a1.65,1.65,0,0,0,1.66,1.71,2.46,2.46,0,0,0,1.78-.78C288.57,112.07,288.62,110.82,288.62,109.63Z"/><path class="cls-6" d="M298.45,114.81v-.28c1.41-.18,1.5-.34,1.5-2.12v-3.56c0-1.39-.43-2.73-2.05-2.73a3.81,3.81,0,0,0-2.47,1.09v5.32c0,1.66.16,1.78,1.46,2v.28h-4.44v-.28c1.43-.2,1.5-.41,1.5-2v-4.61c0-1.41-.07-1.55-1.16-1.85v-.22a8.86,8.86,0,0,0,2.69-1c0,.41-.07,1-.05,1.84.44-.34,1-.73,1.56-1.11a3.16,3.16,0,0,1,1.71-.64c1.73,0,2.73,1.32,2.73,3.37v4.22c0,1.6.14,1.74,1.3,1.94v.28Z"/><path class="cls-6" d="M315.85,99.66a7.29,7.29,0,0,1,7.21,7.53c0,4.79-3.31,8-7.39,8a7.32,7.32,0,0,1-7.23-7.53C308.44,103.49,311.26,99.66,315.85,99.66Zm-.43.5c-2.65,0-5,2.37-5,6.8s2.32,7.66,5.77,7.66c2.69,0,4.93-2.32,4.93-6.72C321.1,103,318.7,100.16,315.42,100.16Z"/><path class="cls-6" d="M336.15,114.81v-.28c1.46-.2,1.48-.36,1.48-2.21v-3.53c0-1.44-.36-2.67-2-2.67a3.5,3.5,0,0,0-2.42,1.11,4.74,4.74,0,0,1,.07,1v4.35c0,1.58.09,1.72,1.37,1.94v.28H330.4v-.28c1.32-.22,1.44-.38,1.44-1.94v-3.83c0-1.69-.46-2.67-2-2.67a3.58,3.58,0,0,0-2.32,1.12v5.32c0,1.59,0,1.78,1.46,2v.28h-4.45v-.28c1.44-.18,1.51-.38,1.51-2V108c0-1.5-.1-1.59-1.17-1.87v-.22a9.16,9.16,0,0,0,2.69-1c0,.82,0,1.46,0,1.8.43-.3.91-.69,1.48-1.07a3.26,3.26,0,0,1,1.78-.64,2.38,2.38,0,0,1,2.35,1.8,21.56,21.56,0,0,1,1.87-1.3,2.73,2.73,0,0,1,1.53-.5c1.59,0,2.55,1.28,2.55,3.31v4.15c0,1.78.12,1.85,1.33,2.07v.28Z"/><path class="cls-6" d="M346.41,105a4.64,4.64,0,0,1,4.61,4.86c0,3.44-2.48,5.22-4.63,5.22a4.73,4.73,0,0,1-4.67-4.86A5,5,0,0,1,346.41,105Zm-.27.48c-1.6,0-2.69,1.71-2.69,4,0,3,1.37,5,3.24,5,1.44,0,2.6-1.08,2.6-4.29C349.29,107.8,348.22,105.48,346.14,105.48Z"/><path class="cls-6" d="M356.27,114.85a1.67,1.67,0,0,1-.71.23c-1.34,0-2-.91-2-2.6v-6.59h-1.5l-.05-.09.28-.53h1.27V103.1a16.39,16.39,0,0,0,1.37-1.3l.16,0c0,.41-.07,1.62-.07,3.44h2.44a.82.82,0,0,1-.13.62H355v5.93c0,1.87.67,2.23,1.42,2.23a2.8,2.8,0,0,0,1.3-.34l.09.3Z"/><path class="cls-6" d="M366.17,112.89a5,5,0,0,1-3.4,2.19c-2.69,0-4.24-2.26-4.24-4.74a5.48,5.48,0,0,1,1.36-3.77,4.6,4.6,0,0,1,3.18-1.57,3.13,3.13,0,0,1,3.14,3c0,.34,0,.55-.11.57a43.12,43.12,0,0,1-6.16.34c-.07,3.65,1.94,4.89,3.56,4.89a3.56,3.56,0,0,0,2.49-1.17Zm-3.74-7.28c-1.12,0-2.13.85-2.42,2.74a40.76,40.76,0,0,0,4.4-.07c.12,0,.16-.13.16-.36A2.13,2.13,0,0,0,362.43,105.61Z"/><path class="cls-6" d="M372.9,107.62c-.41-1.6-1.28-2.17-2.33-2.17a1.41,1.41,0,0,0-1.51,1.56c0,1.11.8,1.59,1.9,2.16,1.59.8,2.53,1.53,2.53,2.92a3.13,3.13,0,0,1-3.33,3,6.26,6.26,0,0,1-2.21-.43,22.89,22.89,0,0,1-.46-2.4l.27-.07a2.9,2.9,0,0,0,2.74,2.44,1.56,1.56,0,0,0,1.69-1.66c0-1.1-.66-1.67-1.78-2.28-1.32-.75-2.51-1.44-2.53-3A2.84,2.84,0,0,1,371,105a13.08,13.08,0,0,1,1.92.23c0,.43.23,1.94.27,2.3Z"/><path class="cls-6" d="M381.52,115.08a1.53,1.53,0,0,1-1-.46,1.69,1.69,0,0,1-.5-1,7.91,7.91,0,0,1-2.53,1.48,2.53,2.53,0,0,1-2.51-2.51,2,2,0,0,1,1.62-2,21,21,0,0,0,3.44-1.34v-.69c0-1.64-.79-2.71-2-2.71a1.31,1.31,0,0,0-1,.41,4.23,4.23,0,0,0-.62,1.44.45.45,0,0,1-.43.36.87.87,0,0,1-.8-.8c0-.18.16-.36.55-.66A10.86,10.86,0,0,1,378.8,105a2.74,2.74,0,0,1,1.67.55,3.26,3.26,0,0,1,1,2.78v4.08c0,1.1.36,1.46.8,1.46a1.06,1.06,0,0,0,.71-.23l.13.3ZM380,109.63c-.38.25-1.57.71-2.19,1s-1.3.78-1.3,1.6a1.65,1.65,0,0,0,1.67,1.71,2.48,2.48,0,0,0,1.78-.78C380,112.07,380,110.82,380,109.63Z"/><path class="cls-6" d="M389.84,114.81v-.28c1.42-.18,1.51-.34,1.51-2.12v-3.56c0-1.39-.43-2.73-2.05-2.73a3.81,3.81,0,0,0-2.47,1.09v5.32c0,1.66.16,1.78,1.46,2v.28h-4.45v-.28c1.44-.2,1.51-.41,1.51-2v-4.61c0-1.41-.07-1.55-1.16-1.85v-.22a9,9,0,0,0,2.69-1c0,.41-.07,1-.05,1.84.44-.34,1-.73,1.55-1.11a3.21,3.21,0,0,1,1.71-.64c1.74,0,2.74,1.32,2.74,3.37v4.22c0,1.6.14,1.74,1.3,1.94v.28Z"/><path class="cls-6" d="M405.65,114.26a14,14,0,0,0-3.12.82c0-.5,0-1,0-1.55a22.58,22.58,0,0,1-1.94,1.16,2.89,2.89,0,0,1-1.23.39c-1.71,0-3.9-1.73-3.9-4.72A5.5,5.5,0,0,1,401,105a5.12,5.12,0,0,1,1.57.2v-4c0-1.48-.11-1.73-1.71-1.91v-.25a12.21,12.21,0,0,0,3.29-.73c0,.48-.1,2-.1,2.85V112.3c0,1.14.17,1.46,1,1.59l.64.12Zm-3.08-7.48a3.1,3.1,0,0,0-2.6-1.1c-1.28,0-2.83.76-2.83,3.95,0,2.8,1.65,4.31,3.2,4.31a3.3,3.3,0,0,0,2.23-.84Z"/><path class="cls-6" d="M411.33,105a4.64,4.64,0,0,1,4.61,4.86,4.86,4.86,0,0,1-4.63,5.22,4.73,4.73,0,0,1-4.68-4.86A5,5,0,0,1,411.33,105Zm-.27.48c-1.6,0-2.69,1.71-2.69,4,0,3,1.36,5,3.23,5,1.44,0,2.61-1.08,2.61-4.29C414.21,107.8,413.13,105.48,411.06,105.48Z"/><path class="cls-6" d="M422.8,114.81v-.28c2.49-.27,2.6-.5,2.6-2v-9.24c0-1.14-.11-1.3-1.3-1.44l-.77-.09v-.25a13.61,13.61,0,0,0,3.65-1.14v12.16c0,1.57.09,1.71,2.62,2v.28Z"/><path class="cls-6" d="M436.35,100.32c3.29,0,4.52,3.86,4.52,7.37s-1.23,7.39-4.52,7.39-4.49-3.9-4.49-7.37S433.09,100.32,436.35,100.32Zm0,.46c-2.19,0-2.71,3.69-2.71,6.91s.54,6.93,2.74,6.93,2.71-3.71,2.71-6.91S438.56,100.78,436.35,100.78Z"/><path class="cls-6" d="M450.36,100.6l.11.18-.55,1.21h-5.08c-.25,1.55-.53,3.15-.82,4.7a9,9,0,0,1,2.64-.78,3.86,3.86,0,0,1,4.2,3.79,4.88,4.88,0,0,1-1.89,3.74,6.24,6.24,0,0,1-3.84,1.64,3.51,3.51,0,0,1-2.14-.71c-.3-.25-.39-.43-.39-.66A1,1,0,0,1,443,113a.33.33,0,0,1,.44,0,3.77,3.77,0,0,0,2.73,1.16c2.12,0,3.08-1.69,3.08-3.56a3.37,3.37,0,0,0-3.58-3.69,6,6,0,0,0-2.26.48l-.07-.12c.35-1.87.83-4.54,1.1-6.7Z"/><rect class="cls-8" width="814" height="583"/></g></g></svg>