<svg height="98.368" viewBox="0 0 403.828 98.368" width="403.828" xmlns="http://www.w3.org/2000/svg"><path d="m812.465 646.095c0-1.071-.657-1.608-1.964-1.608v-1.6h13.743v1.6a1.7 1.7 0 0 0 -1.115.4 1.458 1.458 0 0 0 -.494 1.2v40.513a1.461 1.461 0 0 0 .494 1.206 1.7 1.7 0 0 0 1.115.4v1.6h-13.744v-1.6c1.307 0 1.964-.538 1.964-1.609v-16.767h-28.734v16.77a1.471 1.471 0 0 0 .49 1.206 1.719 1.719 0 0 0 1.119.4v1.6h-13.475v-1.6q1.7 0 1.7-1.609v-40.51q0-1.606-1.7-1.608v-1.6h13.475v1.6a1.714 1.714 0 0 0 -1.119.4 1.467 1.467 0 0 0 -.49 1.2v15.17h28.735z" fill="#789" transform="translate(-655.689 -617.259)"/><path d="m914.32 643.2a36.646 36.646 0 0 1 7.763.758 17.521 17.521 0 0 1 5.98 2.408 11.137 11.137 0 0 1 3.838 4.284 14.229 14.229 0 0 1 1.336 6.471q0 5.887-3.478 9.011a18.67 18.67 0 0 1 -9.372 4.194l11.87 16.957a2.387 2.387 0 0 0 1.47 1.067 7.386 7.386 0 0 0 1.561.182v1.6h-16.688v-1.6a3.3 3.3 0 0 0 1.384-.269c.385-.178.577-.418.577-.715a2.041 2.041 0 0 0 -.356-1.024c-.239-.389-.595-.908-1.071-1.562l-9.814-13.921h-12.759v15.882a1.368 1.368 0 0 0 .581 1.206 3.92 3.92 0 0 0 2.1.4v1.6h-15.442v-1.6q2.587 0 2.589-1.609v-40.51q0-1.606-2.589-1.609v-1.6zm-2.32 20.879a24.533 24.533 0 0 0 5.355-.49 9.482 9.482 0 0 0 3.392-1.384 5.169 5.169 0 0 0 1.782-2.1 6.709 6.709 0 0 0 0-5.265 5.161 5.161 0 0 0 -1.782-2.095 9.465 9.465 0 0 0 -3.392-1.383 24.526 24.526 0 0 0 -5.355-.491h-15.439v13.206z" fill="#789" transform="translate(-655.689 -617.259)"/><path d="m940.041 688.53q2.32 0 2.32-1.609v-40.51q0-1.606-2.32-1.609v-1.6h14.81v1.6q-2.319 0-2.32 1.609v40.51q0 1.606 2.32 1.609v1.6h-14.81z" fill="#789" transform="translate(-655.689 -617.259)"/><path d="m995.536 643.866a24.584 24.584 0 0 1 6.783 2.142 13.234 13.234 0 0 1 4.731 3.838 9.441 9.441 0 0 1 1.783 5.846 8.152 8.152 0 0 1 -2.589 6.466 18.387 18.387 0 0 1 -6.155 3.526v.178a17.5 17.5 0 0 1 7.1 3.972q2.9 2.723 2.9 7.806a10.773 10.773 0 0 1 -1.159 4.953 11.421 11.421 0 0 1 -3.434 3.972 17.071 17.071 0 0 1 -5.578 2.633 27.539 27.539 0 0 1 -7.5.936h-32.752v-1.6c1.663 0 2.5-.538 2.5-1.609v-40.51c0-1.071-.835-1.609-2.5-1.609v-1.6h27.929a46.027 46.027 0 0 1 7.941.66zm-6.154 17.715a18.418 18.418 0 0 0 6.648-1.028q2.631-1.023 2.632-4.328t-2.632-4.325a18.536 18.536 0 0 0 -6.648-1.024h-17.044v10.708zm0 20.344q5.621 0 8.075-1.739a5.533 5.533 0 0 0 0-9.194q-2.457-1.737-8.075-1.739h-17.044v12.672z" fill="#789" transform="translate(-655.689 -617.259)"/><path d="m1057.375 652.834a1.636 1.636 0 0 0 -.759-1.47 5.13 5.13 0 0 0 -2.633-.491h-28.909v11.064h17.486a6.325 6.325 0 0 0 2.767-.49c.654-.327.984-1.177.984-2.546h1.6v13.921h-1.6c0-1.365-.33-2.244-.984-2.632a5.488 5.488 0 0 0 -2.767-.577h-17.486v12.312h29.8a3.578 3.578 0 0 0 2.185-.625 1.988 1.988 0 0 0 .85-1.7h1.6v12.23h-1.6q0-1.34-.85-1.518a10.933 10.933 0 0 0 -2.185-.178h-41.582v-1.6a1.722 1.722 0 0 0 1.115-.4 1.468 1.468 0 0 0 .49-1.206v-40.51a1.465 1.465 0 0 0 -.49-1.205 1.718 1.718 0 0 0 -1.115-.4v-1.6h40.688a4.458 4.458 0 0 0 2.633-.581 1.863 1.863 0 0 0 .759-1.562h1.6v11.779z" fill="#789" transform="translate(-655.689 -617.259)"/><path d="m854.092 639.995c-15.122 0-27.38 11.841-27.38 26.448s12.258 26.447 27.38 26.447 27.38-11.841 27.38-26.447-12.259-26.448-27.38-26.448zm0 43.763a17.315 17.315 0 1 1 17.242-17.315 17.28 17.28 0 0 1 -17.242 17.315z" fill="#789" transform="translate(-655.689 -617.259)"/><path d="m0 0h98.368v98.368h-98.368z" fill="#a84236"/><g transform="translate(-655.689 -617.259)"><path d="m708.85 680.581c-.071 0-.11.008-.11.008s.039-.001.11-.008z" fill="#fff"/><path d="m693.741 639.839h39.446c3.28 0 6.012-3.171 6.1-7.082s-2.495-7.355-5.775-7.355c-2.739 0-5.094 2.422-5.849 5.479l-.011.046a.359.359 0 0 1 -.383.245h-47.269c-.308 0-.384-.165-.384-.165a4.8 4.8 0 0 0 -4.543-3.071c-2.624 0-4.592 2.123-4.4 5.6s2.064 6.3 4.688 6.3h5.2a.568.568 0 0 1 .566.533v18.242c0 5.538-4.745 5.926-4.745 5.926s4.745.388 4.745 5.952v14.911a.567.567 0 0 1 -.566.532h-4.928c-2.728 0-5.045 2.57-5.173 5.74s1.98 5.74 4.709 5.74a5.268 5.268 0 0 0 4.72-3.573.474.474 0 0 1 .422-.219h11.184s.186.013.229.152a4.764 4.764 0 0 0 4.45 3.638c2.729 0 5.045-2.569 5.174-5.74s-1.98-5.74-4.709-5.74h-2.9a.57.57 0 0 1 -.569-.554v-15.452c0-5.058 4.945-5.411 4.945-5.411s-4.945-.353-4.945-5.387v-.758a3.162 3.162 0 0 1 1.4-2.6 10.99 10.99 0 0 1 5.5-1.387c8.093 0 13.488 2.1 13.488 14l.12 6.061c0 5.458-4.106 6.077-4.828 6.143.744-.036 5.068.052 5.068 6.969v7.7s-.322 9.629 10.217 11.887c0 0 8.144 1.734 12.495-2.557a5.736 5.736 0 0 0 1.466-3.962c-.026-2.964-2.112-5.368-4.66-5.368s-4.592 2.4-4.567 5.368c0 .1.005.2.01.3l-.01-.005s-7.484-.958-7.484-10.067l-.079-4.433a6.206 6.206 0 0 1 5.149-6.251s-5.314-.331-5.361-5.721l-.18-10.176c0-11.243-7.878-20.358-17.6-20.358a15.949 15.949 0 0 0 -10.147 3.725v-7.236a.57.57 0 0 1 .574-.561z" fill="#fff"/><path d="m812.465 646.095c0-1.071-.657-1.608-1.964-1.608v-1.6h13.743v1.6a1.7 1.7 0 0 0 -1.115.4 1.458 1.458 0 0 0 -.494 1.2v40.513a1.461 1.461 0 0 0 .494 1.206 1.7 1.7 0 0 0 1.115.4v1.6h-13.744v-1.6c1.307 0 1.964-.538 1.964-1.609v-16.767h-28.734v16.77a1.471 1.471 0 0 0 .49 1.206 1.719 1.719 0 0 0 1.119.4v1.6h-13.475v-1.6q1.7 0 1.7-1.609v-40.51q0-1.606-1.7-1.608v-1.6h13.475v1.6a1.714 1.714 0 0 0 -1.119.4 1.467 1.467 0 0 0 -.49 1.2v15.17h28.735z" fill="#789"/><path d="m914.32 643.2a36.646 36.646 0 0 1 7.763.758 17.521 17.521 0 0 1 5.98 2.408 11.137 11.137 0 0 1 3.838 4.284 14.229 14.229 0 0 1 1.336 6.471q0 5.887-3.478 9.011a18.67 18.67 0 0 1 -9.372 4.194l11.87 16.957a2.387 2.387 0 0 0 1.47 1.067 7.386 7.386 0 0 0 1.561.182v1.6h-16.688v-1.6a3.3 3.3 0 0 0 1.384-.269c.385-.178.577-.418.577-.715a2.041 2.041 0 0 0 -.356-1.024c-.239-.389-.595-.908-1.071-1.562l-9.814-13.921h-12.759v15.882a1.368 1.368 0 0 0 .581 1.206 3.92 3.92 0 0 0 2.1.4v1.6h-15.442v-1.6q2.587 0 2.589-1.609v-40.51q0-1.606-2.589-1.609v-1.6zm-2.32 20.879a24.533 24.533 0 0 0 5.355-.49 9.482 9.482 0 0 0 3.392-1.384 5.169 5.169 0 0 0 1.782-2.1 6.709 6.709 0 0 0 0-5.265 5.161 5.161 0 0 0 -1.782-2.095 9.465 9.465 0 0 0 -3.392-1.383 24.526 24.526 0 0 0 -5.355-.491h-15.439v13.206z" fill="#789"/><path d="m940.041 688.53q2.32 0 2.32-1.609v-40.51q0-1.606-2.32-1.609v-1.6h14.81v1.6q-2.319 0-2.32 1.609v40.51q0 1.606 2.32 1.609v1.6h-14.81z" fill="#789"/><path d="m995.536 643.866a24.584 24.584 0 0 1 6.783 2.142 13.234 13.234 0 0 1 4.731 3.838 9.441 9.441 0 0 1 1.783 5.846 8.152 8.152 0 0 1 -2.589 6.466 18.387 18.387 0 0 1 -6.155 3.526v.178a17.5 17.5 0 0 1 7.1 3.972q2.9 2.723 2.9 7.806a10.773 10.773 0 0 1 -1.159 4.953 11.421 11.421 0 0 1 -3.434 3.972 17.071 17.071 0 0 1 -5.578 2.633 27.539 27.539 0 0 1 -7.5.936h-32.752v-1.6c1.663 0 2.5-.538 2.5-1.609v-40.51c0-1.071-.835-1.609-2.5-1.609v-1.6h27.929a46.027 46.027 0 0 1 7.941.66zm-6.154 17.715a18.418 18.418 0 0 0 6.648-1.028q2.631-1.023 2.632-4.328t-2.632-4.325a18.536 18.536 0 0 0 -6.648-1.024h-17.044v10.708zm0 20.344q5.621 0 8.075-1.739a5.533 5.533 0 0 0 0-9.194q-2.457-1.737-8.075-1.739h-17.044v12.672z" fill="#789"/><path d="m1057.375 652.834a1.636 1.636 0 0 0 -.759-1.47 5.13 5.13 0 0 0 -2.633-.491h-28.909v11.064h17.486a6.325 6.325 0 0 0 2.767-.49c.654-.327.984-1.177.984-2.546h1.6v13.921h-1.6c0-1.365-.33-2.244-.984-2.632a5.488 5.488 0 0 0 -2.767-.577h-17.486v12.312h29.8a3.578 3.578 0 0 0 2.185-.625 1.988 1.988 0 0 0 .85-1.7h1.6v12.23h-1.6q0-1.34-.85-1.518a10.933 10.933 0 0 0 -2.185-.178h-41.582v-1.6a1.722 1.722 0 0 0 1.115-.4 1.468 1.468 0 0 0 .49-1.206v-40.51a1.465 1.465 0 0 0 -.49-1.205 1.718 1.718 0 0 0 -1.115-.4v-1.6h40.688a4.458 4.458 0 0 0 2.633-.581 1.863 1.863 0 0 0 .759-1.562h1.6v11.779z" fill="#789"/><path d="m854.092 639.995c-15.122 0-27.38 11.841-27.38 26.448s12.258 26.447 27.38 26.447 27.38-11.841 27.38-26.447-12.259-26.448-27.38-26.448zm0 43.763a17.315 17.315 0 1 1 17.242-17.315 17.28 17.28 0 0 1 -17.242 17.315z" fill="#789"/></g><path d="m0 0h98.368v98.368h-98.368z" fill="#a84236"/><path d="m708.85 680.581c-.071 0-.11.008-.11.008s.039-.001.11-.008z" fill="#fff" transform="translate(-655.689 -617.259)"/><path d="m693.741 639.839h39.446c3.28 0 6.012-3.171 6.1-7.082s-2.495-7.355-5.775-7.355c-2.739 0-5.094 2.422-5.849 5.479l-.011.046a.359.359 0 0 1 -.383.245h-47.269c-.308 0-.384-.165-.384-.165a4.8 4.8 0 0 0 -4.543-3.071c-2.624 0-4.592 2.123-4.4 5.6s2.064 6.3 4.688 6.3h5.2a.568.568 0 0 1 .566.533v18.242c0 5.538-4.745 5.926-4.745 5.926s4.745.388 4.745 5.952v14.911a.567.567 0 0 1 -.566.532h-4.928c-2.728 0-5.045 2.57-5.173 5.74s1.98 5.74 4.709 5.74a5.268 5.268 0 0 0 4.72-3.573.474.474 0 0 1 .422-.219h11.184s.186.013.229.152a4.764 4.764 0 0 0 4.45 3.638c2.729 0 5.045-2.569 5.174-5.74s-1.98-5.74-4.709-5.74h-2.9a.57.57 0 0 1 -.569-.554v-15.452c0-5.058 4.945-5.411 4.945-5.411s-4.945-.353-4.945-5.387v-.758a3.162 3.162 0 0 1 1.4-2.6 10.99 10.99 0 0 1 5.5-1.387c8.093 0 13.488 2.1 13.488 14l.12 6.061c0 5.458-4.106 6.077-4.828 6.143.744-.036 5.068.052 5.068 6.969v7.7s-.322 9.629 10.217 11.887c0 0 8.144 1.734 12.495-2.557a5.736 5.736 0 0 0 1.466-3.962c-.026-2.964-2.112-5.368-4.66-5.368s-4.592 2.4-4.567 5.368c0 .1.005.2.01.3l-.01-.005s-7.484-.958-7.484-10.067l-.079-4.433a6.206 6.206 0 0 1 5.149-6.251s-5.314-.331-5.361-5.721l-.18-10.176c0-11.243-7.878-20.358-17.6-20.358a15.949 15.949 0 0 0 -10.147 3.725v-7.236a.57.57 0 0 1 .574-.561z" fill="#fff" transform="translate(-655.689 -617.259)"/></svg>