<svg height="67.661" viewBox="0 0 67.661 67.661" width="67.661" xmlns="http://www.w3.org/2000/svg"><g fill="#fff"><path d="m284.932 67.464h-15.837a8.19 8.19 0 0 0 -8.183 8.182v15.838a8.19 8.19 0 0 0 8.183 8.182h15.837a8.192 8.192 0 0 0 8.182-8.182v-15.838a8.192 8.192 0 0 0 -8.182-8.182zm-7.756 25.869a9.768 9.768 0 1 1 9.768-9.768 9.779 9.779 0 0 1 -9.769 9.768zm10.339-17.869a2.325 2.325 0 1 1 2.325-2.325 2.325 2.325 0 0 1 -2.326 2.325z" transform="translate(-243.183 -49.735)"/><path d="m271.605 71.828a6.257 6.257 0 1 0 6.256 6.259 6.264 6.264 0 0 0 -6.256-6.259z" transform="translate(-237.612 -44.256)"/><path d="m307.18 59.6h-40.6a13.572 13.572 0 0 0 -13.532 13.532v40.6a13.572 13.572 0 0 0 13.532 13.532h40.6a13.572 13.572 0 0 0 13.532-13.532v-40.6a13.572 13.572 0 0 0 -13.532-13.532zm-.465 41.749a11.93 11.93 0 0 1 -11.915 11.918h-15.837a11.929 11.929 0 0 1 -11.915-11.915v-15.837a11.929 11.929 0 0 1 11.915-11.915h15.837a11.93 11.93 0 0 1 11.915 11.915z" transform="translate(-253.051 -59.603)"/></g></svg>