<svg height="67.661" viewBox="0 0 67.661 67.661" width="67.661" xmlns="http://www.w3.org/2000/svg"><path d="m281.556 72.253a12.687 12.687 0 0 0 -12.65-12.65h-42.359a12.687 12.687 0 0 0 -12.65 12.65v42.358a12.687 12.687 0 0 0 12.648 12.65h14.141a12.7 12.7 0 0 0 1.755-.124v-22.815h-8.591v-9.779h8.591v-7.452c0-8.48 5.05-13.162 12.777-13.162a52 52 0 0 1 7.574.661v8.325h-4.265c-4.2 0-5.514 2.607-5.514 5.282v6.347h9.382l-1.5 9.779h-7.882v22.849a12.7 12.7 0 0 0 1.52.092h14.376a12.689 12.689 0 0 0 12.65-12.65z" fill="#fff" transform="translate(-213.897 -59.603)"/></svg>