<svg height="55.927" viewBox="0 0 224.254 55.927" width="224.254" xmlns="http://www.w3.org/2000/svg" xmlns:xlink="http://www.w3.org/1999/xlink"><filter id="a" filterUnits="userSpaceOnUse" height="51.655" width="55.558" x="0" y="2.069"><feOffset dy="3"/><feGaussianBlur result="blur" stdDeviation="3"/><feFlood flood-opacity=".161"/><feComposite in2="blur" operator="in"/><feComposite in="SourceGraphic"/></filter><filter id="b" filterUnits="userSpaceOnUse" height="51.654" width="54.917" x="80.262" y="2.296"><feOffset dy="3"/><feGaussianBlur result="blur-2" stdDeviation="3"/><feFlood flood-opacity=".161"/><feComposite in2="blur-2" operator="in"/><feComposite in="SourceGraphic"/></filter><filter id="c" filterUnits="userSpaceOnUse" height="51.654" width="28.619" x="120.587" y="2.296"><feOffset dy="3"/><feGaussianBlur result="blur-3" stdDeviation="3"/><feFlood flood-opacity=".161"/><feComposite in2="blur-3" operator="in"/><feComposite in="SourceGraphic"/></filter><filter id="d" filterUnits="userSpaceOnUse" height="51.654" width="54.149" x="134.658" y="2.296"><feOffset dy="3"/><feGaussianBlur result="blur-4" stdDeviation="3"/><feFlood flood-opacity=".161"/><feComposite in2="blur-4" operator="in"/><feComposite in="SourceGraphic"/></filter><filter id="e" filterUnits="userSpaceOnUse" height="54.407" width="51.142" x="173.112" y=".759"><feOffset dy="3"/><feGaussianBlur result="blur-5" stdDeviation="3"/><feFlood flood-opacity=".161"/><feComposite in2="blur-5" operator="in"/><feComposite in="SourceGraphic"/></filter><filter id="f" filterUnits="userSpaceOnUse" height="55.927" width="57.264" x="39.327" y="0"><feOffset dy="3"/><feGaussianBlur result="blur-6" stdDeviation="3"/><feFlood flood-opacity=".161"/><feComposite in2="blur-6" operator="in"/><feComposite in="SourceGraphic"/></filter><g filter="url(#a)" transform="translate(0 .002)"><path d="m800.976 645.186c0-.768-.471-1.153-1.408-1.153v-1.151h9.854v1.151a1.215 1.215 0 0 0 -.8.289 1.045 1.045 0 0 0 -.354.864v29.047a1.048 1.048 0 0 0 .354.865 1.219 1.219 0 0 0 .8.289v1.151h-9.854v-1.151c.937 0 1.408-.386 1.408-1.154v-12.033h-20.6v12.028a1.055 1.055 0 0 0 .351.865 1.233 1.233 0 0 0 .8.289v1.151h-9.662v-1.151q1.215 0 1.216-1.154v-29.042q0-1.152-1.216-1.153v-1.151h9.662v1.151a1.229 1.229 0 0 0 -.8.289 1.052 1.052 0 0 0 -.351.864v10.877h20.6z" fill="#fff" transform="translate(-762.86 -634.81)"/></g><g filter="url(#b)" transform="translate(0 .002)"><path d="m905.684 643.2a26.283 26.283 0 0 1 5.566.543 12.566 12.566 0 0 1 4.288 1.727 7.986 7.986 0 0 1 2.752 3.072 10.2 10.2 0 0 1 .958 4.64 8.229 8.229 0 0 1 -2.494 6.461 13.387 13.387 0 0 1 -6.72 3.007l8.511 12.159a1.712 1.712 0 0 0 1.054.765 5.3 5.3 0 0 0 1.119.13v1.15h-11.962v-1.154a2.366 2.366 0 0 0 .992-.193c.276-.128.414-.3.414-.513a1.463 1.463 0 0 0 -.255-.734c-.171-.279-.427-.651-.768-1.12l-7.037-9.982h-9.152v11.388a.981.981 0 0 0 .417.865 2.811 2.811 0 0 0 1.505.289v1.15h-11.072v-1.15q1.855 0 1.856-1.154v-29.046q0-1.152-1.856-1.154v-1.146zm-1.663 14.972a17.582 17.582 0 0 0 3.84-.351 6.8 6.8 0 0 0 2.432-.992 3.706 3.706 0 0 0 1.278-1.5 4.811 4.811 0 0 0 0-3.775 3.7 3.7 0 0 0 -1.278-1.5 6.786 6.786 0 0 0 -2.432-.992 17.588 17.588 0 0 0 -3.84-.352h-11.071v9.469z" fill="#fff" transform="translate(-794.54 -634.9)"/></g><g filter="url(#c)" transform="translate(0 .002)"><path d="m940.041 675.7q1.664 0 1.664-1.154v-29.046q0-1.152-1.664-1.154v-1.146h10.619v1.15q-1.663 0-1.664 1.154v29.047q0 1.152 1.664 1.154v1.15h-10.619z" fill="#fff" transform="translate(-810.45 -634.9)"/></g><g filter="url(#d)" transform="translate(0 .002)"><path d="m985.386 643.677a17.625 17.625 0 0 1 4.864 1.536 9.49 9.49 0 0 1 3.392 2.752 6.769 6.769 0 0 1 1.279 4.192 5.845 5.845 0 0 1 -1.856 4.636 13.184 13.184 0 0 1 -4.413 2.528v.128a12.551 12.551 0 0 1 5.087 2.848 7.306 7.306 0 0 1 2.078 5.6 7.723 7.723 0 0 1 -.831 3.551 8.189 8.189 0 0 1 -2.462 2.848 12.244 12.244 0 0 1 -4 1.888 19.751 19.751 0 0 1 -5.375.671h-23.483v-1.155q1.789 0 1.791-1.154v-29.046q0-1.152-1.791-1.154v-1.146h20.026a32.993 32.993 0 0 1 5.694.477zm-4.413 12.7a13.208 13.208 0 0 0 4.767-.737 3.5 3.5 0 0 0 0-6.207 13.291 13.291 0 0 0 -4.767-.734h-12.221v7.678zm0 14.587q4.03 0 5.79-1.247a3.967 3.967 0 0 0 0-6.592q-1.762-1.245-5.79-1.247h-12.221v9.086z" fill="#fff" transform="translate(-816.01 -634.9)"/></g><g filter="url(#e)" transform="translate(0 .002)"><path d="m1044.9 649.5a1.173 1.173 0 0 0 -.544-1.054 3.679 3.679 0 0 0 -1.888-.352h-20.729v7.933h12.538a4.535 4.535 0 0 0 1.984-.351c.469-.234.705-.844.705-1.826h1.151v9.982h-1.151c0-.979-.237-1.609-.705-1.887a3.935 3.935 0 0 0 -1.984-.414h-12.538v8.828h21.37a2.565 2.565 0 0 0 1.567-.448 1.425 1.425 0 0 0 .609-1.215h1.151v8.766h-1.151q0-.96-.609-1.088a7.84 7.84 0 0 0 -1.567-.128h-29.815v-1.146a1.235 1.235 0 0 0 .8-.289 1.052 1.052 0 0 0 .351-.865v-29.046a1.05 1.05 0 0 0 -.351-.864 1.232 1.232 0 0 0 -.8-.29v-1.15h29.174a3.2 3.2 0 0 0 1.888-.417 1.336 1.336 0 0 0 .544-1.12h1.15v8.441z" fill="#fff" transform="translate(-831.18 -634.3)"/></g><g filter="url(#f)" transform="translate(0 .002)"><path d="m846.344 639.995c-10.843 0-19.632 8.49-19.632 18.964s8.789 18.963 19.632 18.963 19.632-8.49 19.632-18.963-8.79-18.964-19.632-18.964zm0 31.379a12.415 12.415 0 1 1 12.363-12.415 12.39 12.39 0 0 1 -12.363 12.415z" fill="#fff" transform="translate(-778.38 -633.99)"/></g></svg>